<svg xmlns="http://www.w3.org/2000/svg" xmlns:xlink="http://www.w3.org/1999/xlink" width="1366" zoomAndPan="magnify" viewBox="0 0 1024.5 576" height="768" preserveAspectRatio="xMidYMid meet" version="1.0"><defs><clipPath id="c6375e8897"><path d="M 0 0.140625 L 1024 0.140625 L 1024 575.859375 L 0 575.859375 Z M 0 0.140625 " clip-rule="nonzero"/></clipPath><clipPath id="2d82c912d7"><path d="M 0 0.140625 L 1024 0.140625 L 1024 329.738281 L 0 329.738281 Z M 0 0.140625 " clip-rule="nonzero"/></clipPath><clipPath id="d69509d691"><path d="M 0 0.140625 L 1024 0.140625 L 1024 311 L 0 311 Z M 0 0.140625 " clip-rule="nonzero"/></clipPath><clipPath id="216fbc57dd"><path d="M 0 0.140625 L 1024 0.140625 L 1024 300 L 0 300 Z M 0 0.140625 " clip-rule="nonzero"/></clipPath><clipPath id="88d1dfc0ba"><path d="M 0 114 L 1024 114 L 1024 574.90625 L 0 574.90625 Z M 0 114 " clip-rule="nonzero"/></clipPath><clipPath id="c1dfc17b55"><path d="M 0 207 L 1024 207 L 1024 574.90625 L 0 574.90625 Z M 0 207 " clip-rule="nonzero"/></clipPath><clipPath id="f5da8e71cb"><path d="M 0 57.085938 L 1024 57.085938 L 1024 487 L 0 487 Z M 0 57.085938 " clip-rule="nonzero"/></clipPath><clipPath id="296a011efc"><path d="M 0 265.773438 L 1024 265.773438 L 1024 574.90625 L 0 574.90625 Z M 0 265.773438 " clip-rule="nonzero"/></clipPath></defs><g clip-path="url(#c6375e8897)"><path fill="#ffffff" d="M 0 0.140625 L 1024 0.140625 L 1024 575.859375 L 0 575.859375 Z M 0 0.140625 " fill-opacity="1" fill-rule="nonzero"/><path fill="#ffffff" d="M 0 0.140625 L 1024 0.140625 L 1024 575.859375 L 0 575.859375 Z M 0 0.140625 " fill-opacity="1" fill-rule="nonzero"/></g><g clip-path="url(#2d82c912d7)"><path fill="#dae7ff" d="M 1524.226562 -41.339844 C 1524.226562 -57.917969 1510.835938 -71.304688 1494.257812 -71.304688 L -530.890625 -71.304688 C -547.464844 -71.304688 -560.855469 -57.917969 -560.855469 -41.339844 L -560.855469 299.773438 C -560.855469 316.351562 -547.464844 329.738281 -530.890625 329.738281 L 1494.257812 329.738281 C 1510.835938 329.738281 1524.226562 316.351562 1524.226562 299.773438 L 1524.226562 -41.339844 " fill-opacity="1" fill-rule="evenodd"/></g><g clip-path="url(#d69509d691)"><path fill="#dae7ff" d="M 1504.9375 -41.339844 C 1504.9375 -47.078125 1500.15625 -51.859375 1494.257812 -51.859375 L -530.890625 -51.859375 C -536.785156 -51.859375 -541.570312 -47.078125 -541.570312 -41.339844 L -541.570312 299.773438 C -541.570312 305.671875 -536.785156 310.453125 -530.890625 310.453125 L 1494.257812 310.453125 C 1500.15625 310.453125 1504.9375 305.671875 1504.9375 299.773438 Z M 1483.578125 -30.660156 L 1483.578125 289.09375 L -520.210938 289.09375 L -520.210938 -30.660156 L 1483.578125 -30.660156 " fill-opacity="1" fill-rule="evenodd"/></g><g clip-path="url(#216fbc57dd)"><path fill="#dae7ff" d="M 1494.257812 -41.339844 L -530.890625 -41.339844 L -530.890625 299.773438 L 1494.257812 299.773438 L 1494.257812 -41.339844 " fill-opacity="1" fill-rule="evenodd"/></g><g clip-path="url(#88d1dfc0ba)"><path fill="#7a5948" d="M 598.640625 575.964844 C 852.125 575.964844 1105.605469 575.761719 1359.085938 576.363281 C 1378.601562 576.410156 1383.121094 572.3125 1382.988281 556.492188 C 1382.082031 445.996094 1382.421875 335.492188 1382.660156 224.996094 C 1382.683594 214.992188 1381.535156 207.679688 1369.015625 201.585938 C 1276.527344 156.523438 1176.199219 131.773438 1070.40625 119.351562 C 942.113281 104.296875 822.660156 129.210938 704.304688 167.355469 C 564.9375 212.273438 429.023438 264.199219 288.0625 305.742188 C 141.183594 349.03125 -9.253906 378.433594 -166.09375 380.75 C -181.515625 380.972656 -185.449219 384.832031 -185.261719 397.207031 C -184.460938 451.488281 -183.917969 505.800781 -185.5 560.066406 C -186.003906 577.230469 -175.738281 576.085938 -161.796875 576.070312 C 91.683594 575.925781 345.160156 575.964844 598.640625 575.964844 " fill-opacity="1" fill-rule="nonzero"/></g><g clip-path="url(#c1dfc17b55)"><path fill="#d9a282" d="M -247.75 207.28125 C -247.75 328.664062 -247.644531 447.019531 -247.972656 565.378906 C -248 573.65625 -244.5 577.089844 -232.585938 576.027344 C -228.511719 575.660156 -224.316406 575.972656 -220.179688 575.972656 C 304.449219 575.972656 829.082031 575.851562 1353.71875 576.363281 C 1377.171875 576.382812 1384.378906 573.042969 1383.636719 555.929688 C 1381.6875 510.929688 1382.679688 465.867188 1383.203125 420.828125 C 1383.320312 411.082031 1380.058594 403.378906 1370.613281 395.835938 C 1322.140625 357.132812 1272.734375 319.042969 1218.898438 283.929688 C 1158.949219 244.828125 1116.652344 248.632812 1071.535156 295.960938 C 1048.480469 320.152344 1034.601562 347.226562 1019.257812 373.878906 C 995.285156 415.53125 969.460938 425.714844 907.890625 412.738281 C 857.179688 402.050781 814.691406 406.707031 771.039062 428.917969 C 712.21875 458.839844 651.429688 442.972656 593.503906 423.648438 C 562.1875 413.199219 540.261719 394.453125 518.226562 376.601562 C 438.542969 312.023438 340.074219 265.8125 230.527344 229.695312 C 171.445312 210.214844 117.757812 212.105469 68.457031 243.921875 C 56.953125 251.347656 44.515625 258.148438 31.847656 264.601562 C -34.824219 298.546875 -100.425781 295.800781 -160.972656 256.828125 C -187.414062 239.792969 -211.15625 220.417969 -247.75 207.28125 " fill-opacity="1" fill-rule="nonzero"/></g><g clip-path="url(#f5da8e71cb)"><path fill="#3d3733" d="M 1105.359375 478.089844 L 1082.800781 478.089844 C 1082.75 470.832031 1082.644531 454.609375 1082.519531 433.652344 L 1084.855469 433.652344 C 1085.945312 433.652344 1086.839844 432.765625 1086.839844 431.667969 L 1086.839844 429.246094 C 1086.839844 428.148438 1085.945312 427.261719 1084.855469 427.261719 L 1082.484375 427.261719 C 1082.476562 426.019531 1082.464844 424.761719 1082.464844 423.488281 L 1083.867188 423.488281 C 1085.507812 423.488281 1086.839844 422.160156 1086.839844 420.519531 L 1086.839844 416.90625 C 1086.839844 415.265625 1085.507812 413.933594 1083.867188 413.933594 L 1082.40625 413.933594 C 1082.28125 391.15625 1082.152344 365.058594 1082.066406 339.53125 L 1084.855469 339.53125 C 1085.945312 339.53125 1086.839844 338.636719 1086.839844 337.539062 L 1086.839844 335.117188 C 1086.839844 334.023438 1085.945312 333.128906 1084.855469 333.128906 L 1082.046875 333.128906 C 1082.046875 331.875 1082.042969 330.617188 1082.035156 329.359375 L 1083.867188 329.359375 C 1085.507812 329.359375 1086.839844 328.035156 1086.839844 326.394531 L 1086.839844 322.773438 C 1086.839844 321.132812 1085.507812 319.804688 1083.867188 319.804688 L 1082.007812 319.804688 C 1081.941406 294.546875 1081.929688 270.886719 1082.007812 252.855469 C 1082.027344 248.535156 1075.933594 240.734375 1074.097656 235.359375 L 1074.023438 233.699219 C 1075.066406 233.488281 1075.839844 232.574219 1075.839844 231.480469 C 1075.839844 230.324219 1074.972656 229.371094 1073.847656 229.238281 L 1073.582031 222.742188 L 1073.308594 229.238281 C 1072.191406 229.371094 1071.316406 230.324219 1071.316406 231.480469 C 1071.316406 232.574219 1072.097656 233.488281 1073.132812 233.699219 L 1073.058594 235.460938 C 1071.285156 240.832031 1065.59375 248.5625 1065.558594 252.855469 C 1065.445312 270.910156 1065.308594 294.558594 1065.167969 319.804688 L 1063.289062 319.804688 C 1061.648438 319.804688 1060.316406 321.132812 1060.316406 322.773438 L 1060.316406 326.394531 C 1060.316406 328.035156 1061.648438 329.359375 1063.289062 329.359375 L 1065.117188 329.359375 C 1065.109375 330.617188 1065.101562 331.875 1065.097656 333.128906 L 1062.308594 333.128906 C 1061.210938 333.128906 1060.316406 334.023438 1060.316406 335.117188 L 1060.316406 337.539062 C 1060.316406 338.636719 1061.210938 339.53125 1062.308594 339.53125 L 1065.0625 339.53125 C 1064.925781 365.066406 1064.785156 391.15625 1064.671875 413.933594 L 1063.289062 413.933594 C 1061.648438 413.933594 1060.316406 415.265625 1060.316406 416.90625 L 1060.316406 420.519531 C 1060.316406 422.160156 1061.648438 423.488281 1063.289062 423.488281 L 1064.621094 423.488281 C 1064.613281 424.761719 1064.605469 426.019531 1064.605469 427.261719 L 1062.308594 427.261719 C 1061.210938 427.261719 1060.316406 428.148438 1060.316406 429.246094 L 1060.316406 431.667969 C 1060.316406 432.765625 1061.210938 433.652344 1062.308594 433.652344 L 1064.574219 433.652344 C 1064.46875 454.617188 1064.386719 470.832031 1064.347656 478.089844 L 1050.269531 478.089844 L 1050.269531 411.1875 L 1012.355469 408.953125 L 1012.355469 389.246094 L 1002.207031 388.359375 L 1002.207031 345.804688 L 1003.226562 345.804688 C 1004.324219 345.804688 1005.210938 344.917969 1005.210938 343.816406 L 1005.210938 342.996094 C 1005.210938 341.898438 1004.324219 341.011719 1003.226562 341.011719 L 1002.207031 341.011719 L 1002.207031 338.1875 L 1002.238281 338.1875 C 1003.882812 338.1875 1005.210938 336.855469 1005.210938 335.214844 L 1005.210938 333.992188 C 1005.210938 332.351562 1003.882812 331.019531 1002.238281 331.019531 L 1002.207031 331.019531 L 1002.207031 279.992188 L 1003.226562 279.992188 C 1004.324219 279.992188 1005.210938 279.105469 1005.210938 278.007812 L 1005.210938 277.1875 C 1005.210938 276.089844 1004.324219 275.203125 1003.226562 275.203125 L 1002.207031 275.203125 L 1002.207031 273.785156 L 1002.238281 273.785156 C 1003.882812 273.785156 1005.210938 272.457031 1005.210938 270.816406 L 1005.210938 269.589844 C 1005.210938 267.949219 1003.882812 266.625 1002.238281 266.625 L 1002.207031 266.625 L 1002.207031 266.46875 L 1002.542969 266.46875 C 1002.578125 266.46875 1002.605469 266.460938 1002.628906 266.46875 C 1002.675781 266.46875 1002.710938 266.453125 1002.742188 266.421875 C 1003.324219 265.839844 1003.796875 265.175781 1004.105469 264.402344 C 1004.339844 263.800781 1004.492188 263.1875 1004.558594 262.542969 C 1004.617188 262.027344 1004.617188 261.503906 1004.53125 260.988281 C 1004.40625 260.195312 1004.113281 259.46875 1003.683594 258.785156 C 1003.121094 257.886719 1002.378906 257.15625 1001.503906 256.5625 C 1001.015625 256.222656 1000.5 255.953125 999.964844 255.703125 C 999.273438 255.371094 998.574219 255.046875 997.90625 254.667969 C 997.25 254.292969 996.613281 253.882812 996.039062 253.390625 C 995.847656 253.234375 995.660156 253.066406 995.476562 252.902344 C 995.34375 252.785156 995.210938 252.785156 995.070312 252.902344 C 995.066406 252.910156 995.050781 252.921875 995.046875 252.929688 C 994.316406 253.617188 993.503906 254.179688 992.636719 254.675781 C 991.960938 255.054688 991.265625 255.378906 990.570312 255.707031 C 989.910156 256.019531 989.261719 256.375 988.671875 256.832031 C 987.699219 257.585938 986.910156 258.5 986.414062 259.640625 C 986.207031 260.109375 986.070312 260.597656 986.003906 261.109375 C 985.9375 261.558594 985.9375 262.007812 985.984375 262.457031 C 986.042969 263.132812 986.203125 263.789062 986.453125 264.417969 C 986.75 265.164062 987.203125 265.804688 987.765625 266.375 C 987.824219 266.441406 987.882812 266.46875 987.984375 266.46875 L 988.339844 266.46875 L 988.339844 266.625 L 988.308594 266.625 C 986.664062 266.625 985.335938 267.949219 985.335938 269.589844 L 985.335938 270.816406 C 985.335938 272.457031 986.664062 273.785156 988.308594 273.785156 L 988.339844 273.785156 L 988.339844 275.203125 L 987.328125 275.203125 C 986.226562 275.203125 985.335938 276.089844 985.335938 277.1875 L 985.335938 278.007812 C 985.335938 279.105469 986.226562 279.992188 987.328125 279.992188 L 988.339844 279.992188 L 988.339844 331.019531 L 988.308594 331.019531 C 986.664062 331.019531 985.335938 332.351562 985.335938 333.992188 L 985.335938 335.214844 C 985.335938 336.855469 986.664062 338.1875 988.308594 338.1875 L 988.339844 338.1875 L 988.339844 341.011719 L 987.328125 341.011719 C 986.226562 341.011719 985.335938 341.898438 985.335938 342.996094 L 985.335938 343.816406 C 985.335938 344.917969 986.226562 345.804688 987.328125 345.804688 L 988.339844 345.804688 L 988.339844 387.148438 L 951.734375 383.953125 L 945.726562 196.101562 C 945.8125 196 945.890625 195.886719 945.957031 195.769531 L 951.839844 185.578125 C 952.820312 183.882812 951.597656 181.761719 949.636719 181.761719 L 945.269531 181.761719 L 945.015625 173.917969 C 946.804688 173.375 948.101562 171.714844 948.101562 169.757812 C 948.101562 167.699219 946.671875 165.976562 944.753906 165.527344 L 943.753906 134.332031 L 942.753906 165.527344 C 940.832031 165.976562 939.402344 167.699219 939.402344 169.757812 C 939.402344 171.714844 940.703125 173.375 942.488281 173.917969 L 942.238281 181.761719 L 937.867188 181.761719 C 935.910156 181.761719 934.683594 183.882812 935.664062 185.578125 L 941.546875 195.769531 C 941.613281 195.886719 941.695312 196 941.78125 196.101562 L 935.816406 382.554688 L 924.417969 381.5625 C 927.027344 376.210938 929 370.605469 930.402344 364.78125 C 932.726562 355.140625 933.335938 345.433594 931.820312 335.585938 C 930.5625 327.441406 927.878906 319.804688 924.082031 312.539062 C 920.433594 305.570312 915.753906 299.316406 910.492188 293.488281 C 905.191406 287.617188 899.074219 282.71875 892.425781 278.457031 C 885.902344 274.277344 879.128906 270.511719 872.386719 266.707031 C 867.339844 263.855469 862.257812 261.074219 857.265625 258.144531 C 852.210938 255.179688 847.238281 252.0625 842.226562 249.011719 C 841.84375 248.78125 841.480469 248.515625 841.109375 248.265625 C 841.53125 248.050781 841.875 248.027344 842.222656 248.027344 C 843.710938 248.011719 845.191406 248.03125 846.675781 248 C 848.355469 247.960938 849.285156 247.007812 849.304688 245.332031 C 849.316406 243.957031 849.304688 242.578125 849.269531 241.203125 C 849.210938 238.972656 848.113281 237.894531 845.886719 237.882812 C 844.542969 237.867188 843.207031 237.902344 841.863281 237.902344 C 841.597656 237.902344 841.335938 237.839844 840.964844 237.800781 C 841.183594 237.484375 841.335938 237.285156 841.460938 237.074219 C 842.671875 235.050781 843.769531 232.964844 844.390625 230.675781 C 845.675781 225.9375 845.105469 221.351562 843.042969 216.9375 C 841.605469 213.867188 839.8125 211.027344 837.660156 208.421875 C 835.5625 205.878906 833.855469 203.132812 833.144531 199.863281 C 833.121094 199.746094 833.027344 199.652344 832.867188 199.382812 C 832.75 199.746094 832.6875 199.9375 832.625 200.121094 C 832.046875 201.597656 831.597656 203.148438 830.855469 204.535156 C 830.148438 205.875 829.148438 207.050781 828.253906 208.28125 C 827.386719 209.480469 826.449219 210.632812 825.625 211.863281 C 823.847656 214.523438 822.351562 217.328125 821.476562 220.429688 C 820.199219 224.972656 820.53125 229.382812 822.554688 233.644531 C 823.21875 235.042969 823.972656 236.398438 824.71875 237.847656 C 824.410156 237.867188 824.058594 237.902344 823.714844 237.902344 C 822.335938 237.902344 820.960938 237.855469 819.582031 237.886719 C 817.929688 237.925781 816.664062 238.988281 816.589844 240.457031 C 816.503906 242.1875 816.492188 243.929688 816.546875 245.667969 C 816.585938 247.019531 817.472656 247.859375 818.816406 247.992188 C 819.140625 248.019531 819.472656 248.011719 819.796875 248.011719 C 821.382812 248.011719 822.980469 248.011719 824.566406 248.011719 C 824.601562 248.09375 824.628906 248.171875 824.660156 248.25 C 824.375 248.457031 824.109375 248.679688 823.8125 248.859375 C 818.902344 251.863281 814.035156 254.933594 809.066406 257.839844 C 803.035156 261.359375 796.894531 264.695312 790.84375 268.1875 C 784.953125 271.589844 779.046875 274.984375 773.269531 278.570312 C 766.027344 283.058594 759.585938 288.53125 753.988281 294.988281 C 749.492188 300.175781 745.441406 305.683594 742.164062 311.71875 C 737.425781 320.433594 734.46875 329.710938 733.5 339.617188 C 732.9375 345.347656 733.105469 351.042969 733.890625 356.726562 C 734.996094 364.703125 737.226562 372.351562 740.53125 379.695312 C 740.816406 380.320312 741.105469 380.941406 741.402344 381.5625 L 690.402344 386.015625 L 690.402344 382.980469 L 691.761719 382.980469 C 692.859375 382.980469 693.746094 382.085938 693.746094 380.988281 L 693.746094 379.628906 C 693.746094 378.53125 692.859375 377.640625 691.761719 377.640625 L 690.402344 377.640625 L 690.402344 374.496094 L 690.78125 374.496094 C 692.414062 374.496094 693.746094 373.164062 693.746094 371.523438 L 693.746094 369.484375 C 693.746094 367.851562 692.414062 366.523438 690.78125 366.523438 L 690.402344 366.523438 L 690.402344 304.445312 L 691.761719 304.445312 C 692.859375 304.445312 693.746094 303.550781 693.746094 302.453125 L 693.746094 301.089844 C 693.746094 299.992188 692.859375 299.105469 691.761719 299.105469 L 690.402344 299.105469 L 690.402344 295.960938 L 690.78125 295.960938 C 692.414062 295.960938 693.746094 294.632812 693.746094 292.988281 L 693.746094 290.953125 C 693.746094 289.316406 692.414062 287.988281 690.78125 287.988281 L 690.402344 287.988281 L 690.402344 231.171875 L 691.761719 231.171875 C 692.859375 231.171875 693.746094 230.285156 693.746094 229.1875 L 693.746094 227.824219 C 693.746094 226.722656 692.859375 225.835938 691.761719 225.835938 L 690.402344 225.835938 L 690.402344 224.261719 L 690.78125 224.261719 C 692.414062 224.261719 693.746094 222.933594 693.746094 221.292969 L 693.746094 219.261719 C 693.746094 217.617188 692.414062 216.289062 690.78125 216.289062 L 690.402344 216.289062 L 690.402344 216.117188 L 690.78125 216.117188 C 690.8125 216.117188 690.839844 216.109375 690.878906 216.117188 C 690.925781 216.117188 690.960938 216.097656 690.992188 216.0625 C 691.648438 215.410156 692.171875 214.675781 692.515625 213.8125 C 692.78125 213.144531 692.945312 212.457031 693.019531 211.742188 C 693.082031 211.167969 693.082031 210.589844 692.992188 210.015625 C 692.851562 209.128906 692.519531 208.320312 692.042969 207.5625 C 691.414062 206.5625 690.589844 205.753906 689.621094 205.085938 C 689.078125 204.714844 688.496094 204.410156 687.90625 204.125 C 687.132812 203.761719 686.359375 203.40625 685.617188 202.980469 C 684.882812 202.566406 684.175781 202.109375 683.53125 201.558594 C 683.320312 201.378906 683.117188 201.195312 682.902344 201.007812 C 682.757812 200.878906 682.613281 200.878906 682.460938 201.007812 C 682.445312 201.023438 682.441406 201.035156 682.425781 201.042969 C 681.613281 201.808594 680.707031 202.4375 679.738281 202.988281 C 678.992188 203.40625 678.21875 203.761719 677.449219 204.132812 C 676.707031 204.484375 675.988281 204.878906 675.332031 205.382812 C 674.246094 206.222656 673.371094 207.242188 672.816406 208.507812 C 672.589844 209.035156 672.433594 209.578125 672.359375 210.148438 C 672.285156 210.652344 672.285156 211.148438 672.339844 211.648438 C 672.40625 212.398438 672.578125 213.132812 672.863281 213.835938 C 673.191406 214.660156 673.695312 215.375 674.320312 216.011719 C 674.390625 216.082031 674.457031 216.117188 674.5625 216.117188 L 674.96875 216.117188 L 674.96875 216.289062 L 674.589844 216.289062 C 672.949219 216.289062 671.625 217.617188 671.625 219.261719 L 671.625 221.292969 C 671.625 222.933594 672.949219 224.261719 674.589844 224.261719 L 674.96875 224.261719 L 674.96875 225.835938 L 673.609375 225.835938 C 672.511719 225.835938 671.625 226.722656 671.625 227.824219 L 671.625 229.1875 C 671.625 230.285156 672.511719 231.171875 673.609375 231.171875 L 674.96875 231.171875 L 674.96875 287.988281 L 674.589844 287.988281 C 672.949219 287.988281 671.625 289.316406 671.625 290.953125 L 671.625 292.988281 C 671.625 294.632812 672.949219 295.960938 674.589844 295.960938 L 674.96875 295.960938 L 674.96875 299.105469 L 673.609375 299.105469 C 672.511719 299.105469 671.625 299.992188 671.625 301.089844 L 671.625 302.453125 C 671.625 303.550781 672.511719 304.445312 673.609375 304.445312 L 674.96875 304.445312 L 674.96875 366.523438 L 674.589844 366.523438 C 672.949219 366.523438 671.625 367.851562 671.625 369.484375 L 671.625 371.523438 C 671.625 373.164062 672.949219 374.496094 674.589844 374.496094 L 674.96875 374.496094 L 674.96875 377.640625 L 673.609375 377.640625 C 672.511719 377.640625 671.625 378.53125 671.625 379.628906 L 671.625 380.988281 C 671.625 382.085938 672.511719 382.980469 673.609375 382.980469 L 674.96875 382.980469 L 674.96875 387.367188 L 653.601562 389.238281 C 650.980469 385.453125 647.816406 382.078125 644.214844 379.21875 C 644.128906 362.683594 644.042969 344.691406 643.984375 327.015625 L 645.710938 327.015625 C 647 327.015625 648.054688 325.972656 648.054688 324.679688 L 648.054688 323.90625 C 648.054688 322.609375 647 321.5625 645.710938 321.5625 L 643.964844 321.5625 C 643.964844 320.492188 643.957031 319.417969 643.957031 318.347656 L 644.550781 318.347656 C 646.484375 318.347656 648.054688 316.78125 648.054688 314.855469 L 648.054688 313.695312 C 648.054688 311.761719 646.484375 310.195312 644.550781 310.195312 L 643.9375 310.195312 C 643.875 288.648438 643.863281 268.480469 643.929688 253.09375 C 643.949219 249.414062 638.753906 242.75 637.183594 238.171875 L 637.125 236.757812 C 638.003906 236.578125 638.675781 235.804688 638.675781 234.871094 C 638.675781 233.878906 637.925781 233.0625 636.972656 232.953125 L 636.742188 227.414062 L 636.515625 232.953125 C 635.554688 233.0625 634.816406 233.878906 634.816406 234.871094 C 634.816406 235.804688 635.476562 236.578125 636.359375 236.757812 L 636.296875 238.265625 C 634.78125 242.835938 629.929688 249.433594 629.902344 253.09375 C 629.804688 268.5 629.683594 288.667969 629.566406 310.195312 L 628.929688 310.195312 C 626.996094 310.195312 625.4375 311.761719 625.4375 313.695312 L 625.4375 314.855469 C 625.4375 316.78125 626.996094 318.347656 628.929688 318.347656 L 629.527344 318.347656 C 629.519531 319.417969 629.511719 320.492188 629.507812 321.5625 L 627.777344 321.5625 C 626.480469 321.5625 625.4375 322.609375 625.4375 323.90625 L 625.4375 324.679688 C 625.4375 325.972656 626.480469 327.015625 627.777344 327.015625 L 629.480469 327.015625 C 629.402344 341.898438 629.320312 357 629.242188 371.265625 C 625.667969 370.140625 621.902344 369.433594 618.007812 369.203125 L 618.007812 366.628906 C 618.007812 350.183594 609.511719 335.726562 596.667969 327.398438 L 596.667969 286.695312 L 598.363281 286.695312 C 599.652344 286.695312 600.707031 285.652344 600.707031 284.355469 L 600.707031 282.59375 C 600.707031 281.304688 599.652344 280.25 598.363281 280.25 L 596.667969 280.25 L 596.667969 276.453125 L 597.203125 276.453125 C 599.136719 276.453125 600.707031 274.890625 600.707031 272.960938 L 600.707031 270.324219 C 600.707031 268.394531 599.136719 266.824219 597.203125 266.824219 L 596.667969 266.824219 L 596.667969 198.238281 L 598.363281 198.238281 C 599.652344 198.238281 600.707031 197.191406 600.707031 195.894531 L 600.707031 194.132812 C 600.707031 192.84375 599.652344 191.792969 598.363281 191.792969 L 596.667969 191.792969 L 596.667969 189.894531 L 597.203125 189.894531 C 599.136719 189.894531 600.707031 188.324219 600.707031 186.390625 L 600.707031 183.765625 C 600.707031 181.832031 599.136719 180.265625 597.203125 180.265625 L 596.667969 180.265625 L 596.667969 180.050781 C 596.8125 180.050781 596.964844 180.050781 597.117188 180.050781 C 597.160156 180.050781 597.199219 180.046875 597.238281 180.050781 C 597.296875 180.058594 597.335938 180.03125 597.378906 179.992188 C 598.171875 179.207031 598.808594 178.3125 599.21875 177.273438 C 599.535156 176.472656 599.734375 175.640625 599.824219 174.777344 C 599.90625 174.082031 599.898438 173.390625 599.792969 172.695312 C 599.621094 171.621094 599.222656 170.644531 598.65625 169.730469 C 597.894531 168.519531 596.894531 167.546875 595.722656 166.738281 C 595.066406 166.289062 594.367188 165.925781 593.652344 165.582031 C 592.722656 165.136719 591.785156 164.707031 590.882812 164.191406 C 590.003906 163.6875 589.148438 163.140625 588.367188 162.484375 C 588.109375 162.265625 587.863281 162.039062 587.613281 161.816406 C 587.433594 161.65625 587.257812 161.65625 587.078125 161.816406 C 587.0625 161.828125 587.050781 161.84375 587.039062 161.855469 C 586.058594 162.78125 584.960938 163.542969 583.792969 164.199219 C 582.894531 164.707031 581.960938 165.144531 581.027344 165.585938 C 580.128906 166.011719 579.261719 166.492188 578.472656 167.101562 C 577.15625 168.113281 576.101562 169.339844 575.433594 170.875 C 575.164062 171.507812 574.972656 172.164062 574.878906 172.851562 C 574.800781 173.457031 574.800781 174.058594 574.851562 174.660156 C 574.945312 175.574219 575.148438 176.453125 575.488281 177.300781 C 575.882812 178.300781 576.492188 179.160156 577.246094 179.925781 C 577.335938 180.019531 577.414062 180.050781 577.539062 180.050781 C 577.703125 180.050781 577.863281 180.050781 578.027344 180.050781 L 578.027344 180.265625 L 577.484375 180.265625 C 575.554688 180.265625 573.992188 181.832031 573.992188 183.765625 L 573.992188 186.390625 C 573.992188 188.324219 575.554688 189.894531 577.484375 189.894531 L 578.027344 189.894531 L 578.027344 191.792969 L 576.328125 191.792969 C 575.039062 191.792969 573.992188 192.84375 573.992188 194.132812 L 573.992188 195.894531 C 573.992188 197.191406 575.039062 198.238281 576.328125 198.238281 L 578.027344 198.238281 L 578.027344 266.824219 L 577.484375 266.824219 C 575.554688 266.824219 573.992188 268.394531 573.992188 270.324219 L 573.992188 272.960938 C 573.992188 274.890625 575.554688 276.453125 577.484375 276.453125 L 578.027344 276.453125 L 578.027344 280.25 L 576.328125 280.25 C 575.039062 280.25 573.992188 281.304688 573.992188 282.59375 L 573.992188 284.355469 C 573.992188 285.652344 575.039062 286.695312 576.328125 286.695312 L 578.027344 286.695312 L 578.027344 320.398438 C 575.824219 320.082031 573.574219 319.917969 571.285156 319.917969 L 548.429688 319.917969 L 548.429688 299.210938 C 555.046875 297.789062 560.003906 291.910156 560.003906 284.871094 L 560.003906 277.203125 C 560.003906 272.589844 557.878906 268.480469 554.558594 265.792969 C 562.539062 259.328125 571.488281 247.875 569.945312 229.550781 C 568.539062 212.820312 553.835938 201.28125 537.207031 190.238281 L 534.59375 108.492188 C 534.972656 108.25 535.300781 107.910156 535.554688 107.480469 L 538.996094 101.511719 C 540.152344 99.511719 538.703125 97.019531 536.402344 97.019531 L 534.222656 97.019531 L 534.019531 90.429688 C 535.515625 89.976562 536.605469 88.589844 536.605469 86.941406 C 536.605469 85.214844 535.402344 83.769531 533.792969 83.386719 L 532.953125 57.210938 L 532.117188 83.386719 C 530.503906 83.769531 529.304688 85.214844 529.304688 86.941406 C 529.304688 88.589844 530.390625 89.976562 531.894531 90.429688 L 531.679688 97.019531 L 529.511719 97.019531 C 527.199219 97.019531 525.757812 99.511719 526.910156 101.511719 L 530.359375 107.480469 C 530.601562 107.910156 530.933594 108.25 531.3125 108.492188 L 528.875 184.789062 C 519.375 178.628906 509.871094 172.382812 502.34375 165.230469 C 492.734375 156.089844 489.09375 142.597656 487.714844 133.691406 C 488.207031 133.71875 488.710938 133.730469 489.207031 133.730469 C 497.738281 133.730469 505.277344 129.523438 509.871094 123.0625 C 506.714844 124.59375 503.179688 125.460938 499.433594 125.460938 C 486.253906 125.460938 475.570312 114.773438 475.570312 101.597656 C 475.570312 94.476562 478.695312 88.085938 483.644531 83.710938 C 472.332031 86.246094 463.882812 96.34375 463.882812 108.414062 C 463.882812 121.332031 473.558594 131.992188 486.0625 133.539062 C 484.699219 142.445312 481.070312 156.039062 471.402344 165.230469 C 448.238281 187.265625 406.234375 200.691406 403.804688 229.550781 C 402.261719 247.875 411.210938 259.328125 419.195312 265.792969 C 415.871094 268.480469 413.746094 272.589844 413.746094 277.203125 L 413.746094 284.871094 C 413.746094 291.910156 418.703125 297.789062 425.324219 299.210938 L 425.324219 319.917969 L 402.46875 319.917969 C 397.019531 319.917969 391.796875 320.847656 386.941406 322.554688 C 386.90625 315.25 386.878906 307.898438 386.851562 300.601562 L 389.382812 300.601562 C 390.679688 300.601562 391.726562 299.546875 391.726562 298.257812 L 391.726562 296.410156 C 391.726562 295.113281 390.679688 294.070312 389.382812 294.070312 L 386.832031 294.070312 C 386.828125 292.785156 386.828125 291.5 386.820312 290.21875 L 388.222656 290.21875 C 390.15625 290.21875 391.726562 288.65625 391.726562 286.722656 L 391.726562 283.964844 C 391.726562 282.03125 390.15625 280.464844 388.222656 280.464844 L 386.792969 280.464844 C 386.726562 254.683594 386.714844 230.535156 386.792969 212.132812 C 386.8125 207.71875 380.589844 199.757812 378.71875 194.273438 L 378.652344 192.578125 C 379.703125 192.367188 380.5 191.433594 380.5 190.316406 C 380.5 189.136719 379.613281 188.160156 378.460938 188.027344 L 378.1875 181.390625 L 377.917969 188.027344 C 376.773438 188.160156 375.886719 189.136719 375.886719 190.316406 C 375.886719 191.433594 376.679688 192.367188 377.730469 192.578125 L 377.660156 194.378906 C 375.847656 199.859375 370.035156 207.753906 370.007812 212.132812 C 369.886719 230.5625 369.75 254.703125 369.605469 280.464844 L 368.152344 280.464844 C 366.222656 280.464844 364.660156 282.03125 364.660156 283.964844 L 364.660156 286.722656 C 364.660156 288.65625 366.222656 290.21875 368.152344 290.21875 L 369.550781 290.21875 C 369.542969 291.5 369.539062 292.785156 369.53125 294.070312 L 366.996094 294.070312 C 365.707031 294.070312 364.660156 295.113281 364.660156 296.410156 L 364.660156 298.257812 C 364.660156 299.546875 365.707031 300.601562 366.996094 300.601562 L 369.496094 300.601562 C 369.4375 311.632812 369.378906 322.769531 369.320312 333.707031 C 360.925781 342.148438 355.742188 353.785156 355.742188 366.628906 L 355.742188 369.203125 C 350.453125 369.511719 345.410156 370.703125 340.742188 372.636719 L 337.746094 278.890625 C 338.121094 278.644531 338.453125 278.304688 338.707031 277.875 L 342.148438 271.90625 C 343.304688 269.910156 341.855469 267.40625 339.550781 267.40625 L 337.375 267.40625 L 337.167969 260.824219 C 338.664062 260.367188 339.757812 258.976562 339.757812 257.335938 C 339.757812 255.609375 338.554688 254.160156 336.945312 253.78125 L 336.105469 227.597656 L 335.269531 253.78125 C 333.65625 254.160156 332.457031 255.609375 332.457031 257.335938 C 332.457031 258.976562 333.542969 260.367188 335.046875 260.824219 L 334.832031 267.40625 L 332.660156 267.40625 C 330.351562 267.40625 328.910156 269.910156 330.0625 271.90625 L 333.507812 277.875 C 333.761719 278.304688 334.085938 278.644531 334.460938 278.890625 L 331.296875 377.890625 C 327.148438 380.882812 323.507812 384.535156 320.527344 388.695312 L 305.316406 387.367188 L 305.316406 382.980469 L 306.667969 382.980469 C 307.765625 382.980469 308.660156 382.085938 308.660156 380.988281 L 308.660156 379.628906 C 308.660156 378.53125 307.765625 377.640625 306.667969 377.640625 L 305.316406 377.640625 L 305.316406 374.496094 L 305.6875 374.496094 C 307.332031 374.496094 308.660156 373.164062 308.660156 371.523438 L 308.660156 369.484375 C 308.660156 367.851562 307.332031 366.523438 305.6875 366.523438 L 305.316406 366.523438 L 305.316406 304.445312 L 306.667969 304.445312 C 307.765625 304.445312 308.660156 303.550781 308.660156 302.453125 L 308.660156 301.089844 C 308.660156 299.992188 307.765625 299.105469 306.667969 299.105469 L 305.316406 299.105469 L 305.316406 295.960938 L 305.6875 295.960938 C 307.332031 295.960938 308.660156 294.632812 308.660156 292.988281 L 308.660156 290.953125 C 308.660156 289.316406 307.332031 287.988281 305.6875 287.988281 L 305.316406 287.988281 L 305.316406 231.171875 L 306.667969 231.171875 C 307.765625 231.171875 308.660156 230.285156 308.660156 229.1875 L 308.660156 227.824219 C 308.660156 226.722656 307.765625 225.835938 306.667969 225.835938 L 305.316406 225.835938 L 305.316406 224.261719 L 305.6875 224.261719 C 307.332031 224.261719 308.660156 222.933594 308.660156 221.292969 L 308.660156 219.261719 C 308.660156 217.617188 307.332031 216.289062 305.6875 216.289062 L 305.316406 216.289062 L 305.316406 216.117188 L 305.722656 216.117188 C 305.820312 216.117188 305.886719 216.082031 305.960938 216.011719 C 306.582031 215.375 307.085938 214.660156 307.421875 213.835938 C 307.699219 213.132812 307.875 212.398438 307.9375 211.648438 C 307.992188 211.148438 307.992188 210.652344 307.917969 210.148438 C 307.847656 209.578125 307.6875 209.035156 307.460938 208.507812 C 306.90625 207.242188 306.039062 206.222656 304.949219 205.382812 C 304.292969 204.878906 303.570312 204.484375 302.828125 204.132812 C 302.0625 203.761719 301.285156 203.40625 300.539062 202.988281 C 299.574219 202.4375 298.664062 201.808594 297.851562 201.042969 C 297.84375 201.035156 297.832031 201.023438 297.820312 201.007812 C 297.671875 200.878906 297.519531 200.878906 297.375 201.007812 C 297.164062 201.195312 296.957031 201.378906 296.746094 201.558594 C 296.105469 202.109375 295.394531 202.566406 294.660156 202.980469 C 293.917969 203.40625 293.144531 203.761719 292.371094 204.125 C 291.78125 204.410156 291.199219 204.714844 290.65625 205.085938 C 289.691406 205.753906 288.863281 206.5625 288.234375 207.5625 C 287.757812 208.320312 287.425781 209.128906 287.289062 210.015625 C 287.195312 210.589844 287.195312 211.167969 287.261719 211.742188 C 287.339844 212.457031 287.5 213.144531 287.765625 213.8125 C 288.109375 214.675781 288.632812 215.410156 289.285156 216.0625 C 289.320312 216.097656 289.351562 216.117188 289.398438 216.117188 C 289.4375 216.109375 289.464844 216.117188 289.5 216.117188 L 289.875 216.117188 L 289.875 216.289062 L 289.503906 216.289062 C 287.863281 216.289062 286.53125 217.617188 286.53125 219.261719 L 286.53125 221.292969 C 286.53125 222.933594 287.863281 224.261719 289.503906 224.261719 L 289.875 224.261719 L 289.875 225.835938 L 288.519531 225.835938 C 287.417969 225.835938 286.53125 226.722656 286.53125 227.824219 L 286.53125 229.1875 C 286.53125 230.285156 287.417969 231.171875 288.519531 231.171875 L 289.875 231.171875 L 289.875 287.988281 L 289.503906 287.988281 C 287.863281 287.988281 286.53125 289.316406 286.53125 290.953125 L 286.53125 292.988281 C 286.53125 294.632812 287.863281 295.960938 289.503906 295.960938 L 289.875 295.960938 L 289.875 299.105469 L 288.519531 299.105469 C 287.417969 299.105469 286.53125 299.992188 286.53125 301.089844 L 286.53125 302.453125 C 286.53125 303.550781 287.417969 304.445312 288.519531 304.445312 L 289.875 304.445312 L 289.875 366.523438 L 289.503906 366.523438 C 287.863281 366.523438 286.53125 367.851562 286.53125 369.484375 L 286.53125 371.523438 C 286.53125 373.164062 287.863281 374.496094 289.503906 374.496094 L 289.875 374.496094 L 289.875 377.640625 L 288.519531 377.640625 C 287.417969 377.640625 286.53125 378.53125 286.53125 379.628906 L 286.53125 380.988281 C 286.53125 382.085938 287.417969 382.980469 288.519531 382.980469 L 289.875 382.980469 L 289.875 386.015625 L 238.875 381.5625 C 239.171875 380.941406 239.464844 380.320312 239.75 379.695312 C 243.050781 372.351562 245.28125 364.703125 246.386719 356.726562 C 247.175781 351.042969 247.339844 345.347656 246.777344 339.617188 C 245.8125 329.710938 242.851562 320.433594 238.113281 311.71875 C 234.835938 305.683594 230.785156 300.175781 226.292969 294.988281 C 220.691406 288.53125 214.25 283.058594 207.011719 278.570312 C 201.230469 274.984375 195.328125 271.589844 189.4375 268.1875 C 183.386719 264.695312 177.242188 261.359375 171.214844 257.839844 C 166.242188 254.933594 161.378906 251.863281 156.464844 248.859375 C 156.167969 248.679688 155.902344 248.457031 155.617188 248.25 C 155.652344 248.171875 155.679688 248.09375 155.710938 248.011719 C 157.300781 248.011719 158.894531 248.011719 160.488281 248.011719 C 160.808594 248.011719 161.140625 248.019531 161.464844 247.992188 C 162.808594 247.859375 163.695312 247.019531 163.734375 245.667969 C 163.785156 243.929688 163.773438 242.1875 163.6875 240.457031 C 163.613281 238.988281 162.351562 237.925781 160.695312 237.886719 C 159.320312 237.855469 157.941406 237.902344 156.566406 237.902344 C 156.222656 237.902344 155.871094 237.867188 155.558594 237.847656 C 156.308594 236.398438 157.0625 235.042969 157.722656 233.644531 C 159.75 229.382812 160.078125 224.972656 158.800781 220.429688 C 157.929688 217.328125 156.433594 214.523438 154.660156 211.863281 C 153.832031 210.632812 152.890625 209.480469 152.023438 208.28125 C 151.128906 207.050781 150.132812 205.875 149.421875 204.535156 C 148.679688 203.148438 148.230469 201.597656 147.664062 200.121094 C 147.589844 199.9375 147.53125 199.746094 147.410156 199.382812 C 147.257812 199.652344 147.160156 199.746094 147.132812 199.863281 C 146.425781 203.132812 144.714844 205.878906 142.625 208.421875 C 140.46875 211.027344 138.671875 213.867188 137.238281 216.9375 C 135.171875 221.351562 134.601562 225.9375 135.886719 230.675781 C 136.507812 232.964844 137.609375 235.050781 138.820312 237.074219 C 138.945312 237.285156 139.097656 237.484375 139.316406 237.800781 C 138.945312 237.839844 138.679688 237.902344 138.414062 237.902344 C 137.070312 237.902344 135.734375 237.867188 134.390625 237.882812 C 132.167969 237.894531 131.066406 238.972656 131.007812 241.203125 C 130.976562 242.578125 130.960938 243.957031 130.976562 245.332031 C 130.996094 247.007812 131.921875 247.960938 133.601562 248 C 135.085938 248.03125 136.570312 248.011719 138.058594 248.027344 C 138.402344 248.027344 138.753906 248.050781 139.167969 248.265625 C 138.800781 248.515625 138.433594 248.78125 138.050781 249.011719 C 133.046875 252.0625 128.070312 255.179688 123.011719 258.144531 C 118.019531 261.074219 112.9375 263.855469 107.894531 266.707031 C 101.148438 270.511719 94.378906 274.277344 87.851562 278.457031 C 81.207031 282.71875 75.089844 287.617188 69.789062 293.488281 C 64.523438 299.316406 59.84375 305.570312 56.199219 312.539062 C 52.398438 319.804688 49.71875 327.441406 48.460938 335.585938 C 46.945312 345.433594 47.554688 355.140625 49.875 364.78125 C 51.28125 370.605469 53.253906 376.210938 55.859375 381.5625 L 44.460938 382.554688 L 38.5 196.101562 C 38.585938 196 38.664062 195.886719 38.730469 195.769531 L 44.613281 185.578125 C 45.59375 183.882812 44.371094 181.761719 42.410156 181.761719 L 38.042969 181.761719 L 37.789062 173.917969 C 39.578125 173.375 40.875 171.714844 40.875 169.757812 C 40.875 167.699219 39.445312 165.976562 37.523438 165.527344 L 36.527344 134.332031 L 35.527344 165.527344 C 33.605469 165.976562 32.175781 167.699219 32.175781 169.757812 C 32.175781 171.714844 33.472656 173.375 35.261719 173.917969 L 35.011719 181.761719 L 30.640625 181.761719 C 28.683594 181.761719 27.457031 183.882812 28.4375 185.578125 L 34.320312 195.769531 C 34.386719 195.886719 34.46875 196 34.554688 196.101562 L 28.542969 383.953125 L -8.0625 387.148438 L -8.0625 345.804688 L -7.046875 345.804688 C -5.949219 345.804688 -5.054688 344.917969 -5.054688 343.816406 L -5.054688 342.996094 C -5.054688 341.898438 -5.949219 341.011719 -7.046875 341.011719 L -8.0625 341.011719 L -8.0625 338.1875 L -8.027344 338.1875 C -6.386719 338.1875 -5.054688 336.855469 -5.054688 335.214844 L -5.054688 333.992188 C -5.054688 332.351562 -6.386719 331.019531 -8.027344 331.019531 L -8.0625 331.019531 L -8.0625 279.992188 L -7.046875 279.992188 C -5.949219 279.992188 -5.054688 279.105469 -5.054688 278.007812 L -5.054688 277.1875 C -5.054688 276.089844 -5.949219 275.203125 -7.046875 275.203125 L -8.0625 275.203125 L -8.0625 273.785156 L -8.027344 273.785156 C -6.386719 273.785156 -5.054688 272.457031 -5.054688 270.816406 L -5.054688 269.589844 C -5.054688 267.949219 -6.386719 266.625 -8.027344 266.625 L -8.0625 266.625 L -8.0625 266.46875 L -7.703125 266.46875 C -7.605469 266.46875 -7.542969 266.441406 -7.480469 266.375 C -6.921875 265.804688 -6.472656 265.164062 -6.175781 264.417969 C -5.917969 263.789062 -5.765625 263.132812 -5.703125 262.457031 C -5.660156 262.007812 -5.660156 261.558594 -5.71875 261.109375 C -5.789062 260.597656 -5.929688 260.109375 -6.136719 259.640625 C -6.632812 258.5 -7.414062 257.585938 -8.390625 256.832031 C -8.980469 256.375 -9.625 256.019531 -10.292969 255.707031 C -10.988281 255.378906 -11.683594 255.054688 -12.351562 254.675781 C -13.222656 254.179688 -14.039062 253.617188 -14.765625 252.929688 C -14.773438 252.921875 -14.785156 252.910156 -14.792969 252.902344 C -14.925781 252.785156 -15.0625 252.785156 -15.195312 252.902344 C -15.382812 253.066406 -15.566406 253.234375 -15.753906 253.390625 C -16.335938 253.882812 -16.96875 254.292969 -17.625 254.667969 C -18.292969 255.046875 -18.996094 255.371094 -19.683594 255.703125 C -20.21875 255.953125 -20.738281 256.222656 -21.226562 256.5625 C -22.09375 257.15625 -22.839844 257.886719 -23.40625 258.785156 C -23.835938 259.46875 -24.125 260.195312 -24.25 260.988281 C -24.335938 261.503906 -24.335938 262.027344 -24.277344 262.542969 C -24.207031 263.1875 -24.058594 263.800781 -23.828125 264.402344 C -23.515625 265.175781 -23.046875 265.839844 -22.457031 266.421875 C -22.429688 266.453125 -22.398438 266.46875 -22.351562 266.46875 C -22.324219 266.460938 -22.292969 266.46875 -22.265625 266.46875 L -21.929688 266.46875 L -21.929688 266.625 L -21.960938 266.625 C -23.601562 266.625 -24.933594 267.949219 -24.933594 269.589844 L -24.933594 270.816406 C -24.933594 272.457031 -23.601562 273.785156 -21.960938 273.785156 L -21.929688 273.785156 L -21.929688 275.203125 L -22.941406 275.203125 C -24.039062 275.203125 -24.933594 276.089844 -24.933594 277.1875 L -24.933594 278.007812 C -24.933594 279.105469 -24.039062 279.992188 -22.941406 279.992188 L -21.929688 279.992188 L -21.929688 331.019531 L -21.960938 331.019531 C -23.601562 331.019531 -24.933594 332.351562 -24.933594 333.992188 L -24.933594 335.214844 C -24.933594 336.855469 -23.601562 338.1875 -21.960938 338.1875 L -21.929688 338.1875 L -21.929688 341.011719 L -22.941406 341.011719 C -24.039062 341.011719 -24.933594 341.898438 -24.933594 342.996094 L -24.933594 343.816406 C -24.933594 344.917969 -24.039062 345.804688 -22.941406 345.804688 L -21.929688 345.804688 L -21.929688 388.359375 L -32.074219 389.246094 L -32.074219 408.953125 L -69.992188 411.1875 L -69.992188 478.089844 L -84.070312 478.089844 C -84.101562 470.832031 -84.1875 454.617188 -84.292969 433.652344 L -82.03125 433.652344 C -80.933594 433.652344 -80.039062 432.765625 -80.039062 431.667969 L -80.039062 429.246094 C -80.039062 428.148438 -80.933594 427.261719 -82.03125 427.261719 L -84.328125 427.261719 C -84.328125 426.019531 -84.335938 424.761719 -84.339844 423.488281 L -83.011719 423.488281 C -81.367188 423.488281 -80.039062 422.160156 -80.039062 420.519531 L -80.039062 416.90625 C -80.039062 415.265625 -81.367188 413.933594 -83.011719 413.933594 L -84.394531 413.933594 C -84.507812 391.15625 -84.644531 365.066406 -84.785156 339.53125 L -82.03125 339.53125 C -80.933594 339.53125 -80.039062 338.636719 -80.039062 337.539062 L -80.039062 335.117188 C -80.039062 334.023438 -80.933594 333.128906 -82.03125 333.128906 L -84.816406 333.128906 C -84.824219 331.875 -84.832031 330.617188 -84.835938 329.359375 L -83.011719 329.359375 C -81.367188 329.359375 -80.039062 328.035156 -80.039062 326.394531 L -80.039062 322.773438 C -80.039062 321.132812 -81.367188 319.804688 -83.011719 319.804688 L -84.890625 319.804688 C -85.027344 294.558594 -85.167969 270.910156 -85.28125 252.855469 C -85.3125 248.5625 -91 240.832031 -92.78125 235.460938 L -92.851562 233.699219 C -91.8125 233.488281 -91.039062 232.574219 -91.039062 231.480469 C -91.039062 230.324219 -91.914062 229.371094 -93.03125 229.238281 L -93.304688 222.742188 L -93.566406 229.238281 C -94.691406 229.371094 -95.558594 230.324219 -95.558594 231.480469 C -95.558594 232.574219 -94.785156 233.488281 -93.746094 233.699219 L -93.820312 235.359375 C -95.652344 240.734375 -101.75 248.535156 -101.730469 252.855469 C -101.648438 270.886719 -101.664062 294.546875 -101.730469 319.804688 L -103.589844 319.804688 C -105.230469 319.804688 -106.5625 321.132812 -106.5625 322.773438 L -106.5625 326.394531 C -106.5625 328.035156 -105.230469 329.359375 -103.589844 329.359375 L -101.753906 329.359375 C -101.761719 330.617188 -101.761719 331.875 -101.769531 333.128906 L -104.574219 333.128906 C -105.667969 333.128906 -106.5625 334.023438 -106.5625 335.117188 L -106.5625 337.539062 C -106.5625 338.636719 -105.667969 339.53125 -104.574219 339.53125 L -101.789062 339.53125 C -101.875 365.058594 -102 391.15625 -102.125 413.933594 L -103.589844 413.933594 C -105.230469 413.933594 -106.5625 415.265625 -106.5625 416.90625 L -106.5625 420.519531 C -106.5625 422.160156 -105.230469 423.488281 -103.589844 423.488281 L -102.179688 423.488281 C -102.1875 424.761719 -102.199219 426.019531 -102.207031 427.261719 L -104.574219 427.261719 C -105.667969 427.261719 -106.5625 428.148438 -106.5625 429.246094 L -106.5625 431.667969 C -106.5625 432.765625 -105.667969 433.652344 -104.574219 433.652344 L -102.238281 433.652344 C -102.363281 454.609375 -102.46875 470.832031 -102.523438 478.089844 L -125.082031 478.089844 C -127.386719 478.089844 -129.257812 479.960938 -129.257812 482.273438 C -129.257812 484.574219 -127.386719 486.445312 -125.082031 486.445312 L 1105.359375 486.445312 C 1107.664062 486.445312 1109.539062 484.574219 1109.539062 482.273438 C 1109.539062 479.960938 1107.664062 478.089844 1105.359375 478.089844 " fill-opacity="1" fill-rule="nonzero"/></g><g clip-path="url(#296a011efc)"><path fill="#9b8060" d="M 568.285156 589.253906 C 831.285156 589.253906 1094.28125 589.082031 1357.273438 589.589844 C 1377.03125 589.628906 1383.875 587.175781 1383.625 569.984375 C 1382.289062 477.984375 1382.117188 385.957031 1383.683594 293.964844 C 1384.023438 273.792969 1372.511719 268.671875 1351.304688 266.640625 C 1302.765625 261.980469 1263.292969 276.710938 1228.253906 300.957031 C 1204.925781 317.105469 1187.417969 336.914062 1171.339844 357.546875 C 1167.648438 362.285156 1163.886719 366.992188 1160.226562 371.742188 C 1118.097656 426.496094 1079.308594 447.636719 992.457031 413.101562 C 945.644531 394.480469 921.65625 401.46875 877.871094 431.953125 C 818.492188 473.292969 747.460938 487.789062 669.453125 477.917969 C 638.507812 474.007812 614.105469 457.351562 589.535156 442.886719 C 520.449219 402.207031 444.554688 373.894531 358.835938 361.691406 C 316.597656 355.675781 279.078125 364.496094 243 379.625 C 201.304688 397.101562 160.351562 415.292969 113.460938 423.964844 C 61.335938 433.613281 16.125 427.035156 -19.585938 394.335938 C -44.703125 371.332031 -68.039062 347.125 -93.441406 324.328125 C -129.246094 292.203125 -172.972656 272.324219 -229.835938 273.886719 C -242.472656 274.238281 -247.828125 276.339844 -247.769531 287.367188 C -247.246094 383.695312 -246.953125 480.035156 -247.972656 576.363281 C -248.144531 592.21875 -236.789062 589.234375 -225.457031 589.234375 C 39.128906 589.253906 303.710938 589.253906 568.285156 589.253906 " fill-opacity="1" fill-rule="nonzero"/></g></svg>