<svg xmlns="http://www.w3.org/2000/svg" width="1294" height="8" viewBox="0 0 1294 8" fill="none"><path d="M0 1H1294V8H0V1Z" fill="#242424"></path><path d="M0 0.998535H1.09998C2.16455 0.998535 3.08875 1.6001 3.55078 2.48193C3.63953 2.47363 3.72949 2.46924 3.82056 2.46924H4.92053C6.44763 2.46924 7.68555 3.70703 7.68555 5.23389C7.68555 6.76123 6.44763 7.99902 4.92053 7.99902H3.82056C2.75598 7.99902 1.83191 7.39746 1.36987 6.51562C1.28101 6.52393 1.19104 6.52832 1.09998 6.52832H0V0.998535ZM12.16 0.998535H13.26C14.3246 0.998535 15.2487 1.6001 15.7108 2.48193C15.7996 2.47363 15.8895 2.46924 15.9806 2.46924H17.0806C18.6077 2.46924 19.8456 3.70703 19.8456 5.23389C19.8456 6.76123 18.6077 7.99902 17.0806 7.99902H15.9806C14.916 7.99902 13.9919 7.39746 13.5298 6.51562C13.441 6.52393 13.3511 6.52832 13.26 6.52832H12.16C10.6329 6.52832 9.39502 5.29053 9.39502 3.76367C9.39502 2.23633 10.6329 0.998535 12.16 0.998535ZM24.3199 0.998535H25.42C26.4846 0.998535 27.4087 1.6001 27.8707 2.48193C27.9596 2.47363 28.0496 2.46924 28.1406 2.46924H29.2406C30.7677 2.46924 32.0056 3.70703 32.0056 5.23389C32.0056 6.76123 30.7677 7.99902 29.2406 7.99902H28.1406C27.076 7.99902 26.1519 7.39746 25.6898 6.51562C25.6011 6.52393 25.5111 6.52832 25.42 6.52832H24.3199C22.793 6.52832 21.5551 5.29053 21.5551 3.76367C21.5551 2.23633 22.793 0.998535 24.3199 0.998535ZM36.48 0.998535H37.58C38.6445 0.998535 39.5687 1.6001 40.0308 2.48193C40.1196 2.47363 40.2095 2.46924 40.3005 2.46924H41.4006C42.9276 2.46924 44.1655 3.70703 44.1655 5.23389C44.1655 6.76123 42.9276 7.99902 41.4006 7.99902H40.3005C39.236 7.99902 38.3119 7.39746 37.8499 6.51562C37.761 6.52393 37.671 6.52832 37.58 6.52832H36.48C34.9529 6.52832 33.715 5.29053 33.715 3.76367C33.715 2.23633 34.9529 0.998535 36.48 0.998535ZM48.64 0.998535H49.74C50.8046 0.998535 51.7286 1.6001 52.1908 2.48193C52.2795 2.47363 52.3695 2.46924 52.4606 2.46924H53.5605C55.0876 2.46924 56.3256 3.70703 56.3256 5.23389C56.3256 6.76123 55.0876 7.99902 53.5605 7.99902H52.4606C51.396 7.99902 50.4719 7.39746 50.0098 6.51562C49.921 6.52393 49.8311 6.52832 49.74 6.52832H48.64C47.1129 6.52832 45.875 5.29053 45.875 3.76367C45.875 2.23633 47.1129 0.998535 48.64 0.998535ZM60.8 0.998535H61.9C62.9646 0.998535 63.8887 1.6001 64.3508 2.48193C64.4396 2.47363 64.5295 2.46924 64.6206 2.46924H65.7206C67.2477 2.46924 68.4856 3.70703 68.4856 5.23389C68.4856 6.76123 67.2477 7.99902 65.7206 7.99902H64.6206C63.556 7.99902 62.632 7.39746 62.1698 6.51562C62.0811 6.52393 61.9911 6.52832 61.9 6.52832H60.8C59.2729 6.52832 58.035 5.29053 58.035 3.76367C58.035 2.23633 59.2729 0.998535 60.8 0.998535ZM72.96 0.998535H74.0601C75.1246 0.998535 76.0487 1.6001 76.5107 2.48193C76.5996 2.47363 76.6896 2.46924 76.7806 2.46924H77.8806C79.4076 2.46924 80.6456 3.70703 80.6456 5.23389C80.6456 6.76123 79.4076 7.99902 77.8806 7.99902H76.7806C75.7161 7.99902 74.7919 7.39746 74.3298 6.51562C74.241 6.52393 74.151 6.52832 74.0601 6.52832H72.96C71.433 6.52832 70.1949 5.29053 70.1949 3.76367C70.1949 2.23633 71.433 0.998535 72.96 0.998535ZM85.12 0.998535H86.22C87.2845 0.998535 88.2087 1.6001 88.6708 2.48193C88.7595 2.47363 88.8495 2.46924 88.9406 2.46924H90.0405C91.5676 2.46924 92.8055 3.70703 92.8055 5.23389C92.8055 6.76123 91.5676 7.99902 90.0405 7.99902H88.9406C87.876 7.99902 86.9519 7.39746 86.4899 6.51562C86.401 6.52393 86.311 6.52832 86.22 6.52832H85.12C83.5929 6.52832 82.355 5.29053 82.355 3.76367C82.355 2.23633 83.5929 0.998535 85.12 0.998535ZM97.28 0.998535H98.38C99.4446 0.998535 100.369 1.6001 100.831 2.48193C100.92 2.47363 101.01 2.46924 101.101 2.46924H102.201C103.728 2.46924 104.966 3.70703 104.966 5.23389C104.966 6.76123 103.728 7.99902 102.201 7.99902H101.101C100.036 7.99902 99.1119 7.39746 98.6498 6.51562C98.561 6.52393 98.4711 6.52832 98.38 6.52832H97.28C95.7529 6.52832 94.515 5.29053 94.515 3.76367C94.515 2.23633 95.7529 0.998535 97.28 0.998535ZM109.44 0.998535H110.54C111.605 0.998535 112.529 1.6001 112.991 2.48193C113.08 2.47363 113.17 2.46924 113.261 2.46924H114.361C115.888 2.46924 117.126 3.70703 117.126 5.23389C117.126 6.76123 115.888 7.99902 114.361 7.99902H113.261C112.196 7.99902 111.272 7.39746 110.81 6.51562C110.721 6.52393 110.631 6.52832 110.54 6.52832H109.44C107.913 6.52832 106.675 5.29053 106.675 3.76367C106.675 2.23633 107.913 0.998535 109.44 0.998535ZM121.6 0.998535H122.7C123.765 0.998535 124.689 1.6001 125.151 2.48193C125.24 2.47363 125.329 2.46924 125.421 2.46924H126.521C128.048 2.46924 129.286 3.70703 129.286 5.23389C129.286 6.76123 128.048 7.99902 126.521 7.99902H125.421C124.356 7.99902 123.432 7.39746 122.97 6.51562C122.881 6.52393 122.791 6.52832 122.7 6.52832H121.6C120.073 6.52832 118.835 5.29053 118.835 3.76367C118.835 2.23633 120.073 0.998535 121.6 0.998535ZM133.76 0.998535H134.86C135.925 0.998535 136.849 1.6001 137.311 2.48193C137.4 2.47363 137.49 2.46924 137.581 2.46924H138.681C140.208 2.46924 141.446 3.70703 141.446 5.23389C141.446 6.76123 140.208 7.99902 138.681 7.99902H137.581C136.516 7.99902 135.592 7.39746 135.13 6.51562C135.041 6.52393 134.951 6.52832 134.86 6.52832H133.76C132.233 6.52832 130.995 5.29053 130.995 3.76367C130.995 2.23633 132.233 0.998535 133.76 0.998535ZM145.92 0.998535H147.02C148.085 0.998535 149.009 1.6001 149.471 2.48193C149.56 2.47363 149.65 2.46924 149.741 2.46924H150.841C152.368 2.46924 153.606 3.70703 153.606 5.23389C153.606 6.76123 152.368 7.99902 150.841 7.99902H149.741C148.676 7.99902 147.752 7.39746 147.29 6.51562C147.201 6.52393 147.111 6.52832 147.02 6.52832H145.92C144.393 6.52832 143.155 5.29053 143.155 3.76367C143.155 2.23633 144.393 0.998535 145.92 0.998535ZM158.08 0.998535H159.18C160.245 0.998535 161.169 1.6001 161.631 2.48193C161.72 2.47363 161.81 2.46924 161.901 2.46924H163.001C164.528 2.46924 165.766 3.70703 165.766 5.23389C165.766 6.76123 164.528 7.99902 163.001 7.99902H161.901C160.836 7.99902 159.912 7.39746 159.45 6.51562C159.361 6.52393 159.271 6.52832 159.18 6.52832H158.08C156.553 6.52832 155.315 5.29053 155.315 3.76367C155.315 2.23633 156.553 0.998535 158.08 0.998535ZM170.24 0.998535H171.34C172.405 0.998535 173.329 1.6001 173.791 2.48193C173.88 2.47363 173.969 2.46924 174.061 2.46924H175.161C176.688 2.46924 177.926 3.70703 177.926 5.23389C177.926 6.76123 176.688 7.99902 175.161 7.99902H174.061C172.996 7.99902 172.072 7.39746 171.61 6.51562C171.521 6.52393 171.431 6.52832 171.34 6.52832H170.24C168.713 6.52832 167.475 5.29053 167.475 3.76367C167.475 2.23633 168.713 0.998535 170.24 0.998535ZM182.4 0.998535H183.5C184.565 0.998535 185.489 1.6001 185.951 2.48193C186.04 2.47363 186.13 2.46924 186.221 2.46924H187.321C188.848 2.46924 190.086 3.70703 190.086 5.23389C190.086 6.76123 188.848 7.99902 187.321 7.99902H186.221C185.156 7.99902 184.232 7.39746 183.77 6.51562C183.681 6.52393 183.591 6.52832 183.5 6.52832H182.4C180.873 6.52832 179.635 5.29053 179.635 3.76367C179.635 2.23633 180.873 0.998535 182.4 0.998535ZM194.56 0.998535H195.66C196.725 0.998535 197.649 1.6001 198.111 2.48193C198.2 2.47363 198.29 2.46924 198.381 2.46924H199.481C201.008 2.46924 202.246 3.70703 202.246 5.23389C202.246 6.76123 201.008 7.99902 199.481 7.99902H198.381C197.316 7.99902 196.392 7.39746 195.93 6.51562C195.841 6.52393 195.751 6.52832 195.66 6.52832H194.56C193.033 6.52832 191.795 5.29053 191.795 3.76367C191.795 2.23633 193.033 0.998535 194.56 0.998535ZM206.72 0.998535H207.82C208.885 0.998535 209.809 1.6001 210.271 2.48193C210.36 2.47363 210.45 2.46924 210.541 2.46924H211.641C213.168 2.46924 214.406 3.70703 214.406 5.23389C214.406 6.76123 213.168 7.99902 211.641 7.99902H210.541C209.476 7.99902 208.552 7.39746 208.09 6.51562C208.001 6.52393 207.911 6.52832 207.82 6.52832H206.72C205.193 6.52832 203.955 5.29053 203.955 3.76367C203.955 2.23633 205.193 0.998535 206.72 0.998535ZM218.88 0.998535H219.98C221.045 0.998535 221.969 1.6001 222.431 2.48193C222.52 2.47363 222.609 2.46924 222.701 2.46924H223.801C225.328 2.46924 226.566 3.70703 226.566 5.23389C226.566 6.76123 225.328 7.99902 223.801 7.99902H222.701C221.636 7.99902 220.712 7.39746 220.25 6.51562C220.161 6.52393 220.071 6.52832 219.98 6.52832H218.88C217.353 6.52832 216.115 5.29053 216.115 3.76367C216.115 2.23633 217.353 0.998535 218.88 0.998535ZM231.04 0.998535H232.14C233.205 0.998535 234.129 1.6001 234.591 2.48193C234.68 2.47363 234.77 2.46924 234.861 2.46924H235.961C237.488 2.46924 238.726 3.70703 238.726 5.23389C238.726 6.76123 237.488 7.99902 235.961 7.99902H234.861C233.796 7.99902 232.872 7.39746 232.41 6.51562C232.321 6.52393 232.231 6.52832 232.14 6.52832H231.04C229.513 6.52832 228.275 5.29053 228.275 3.76367C228.275 2.23633 229.513 0.998535 231.04 0.998535ZM243.2 0.998535H244.3C245.365 0.998535 246.289 1.6001 246.751 2.48193C246.84 2.47363 246.93 2.46924 247.021 2.46924H248.121C249.648 2.46924 250.886 3.70703 250.886 5.23389C250.886 6.76123 249.648 7.99902 248.121 7.99902H247.021C245.956 7.99902 245.032 7.39746 244.57 6.51562C244.481 6.52393 244.391 6.52832 244.3 6.52832H243.2C241.673 6.52832 240.435 5.29053 240.435 3.76367C240.435 2.23633 241.673 0.998535 243.2 0.998535ZM255.36 0.998535H256.46C257.525 0.998535 258.449 1.6001 258.911 2.48193C259 2.47363 259.089 2.46924 259.181 2.46924H260.281C261.808 2.46924 263.046 3.70703 263.046 5.23389C263.046 6.76123 261.808 7.99902 260.281 7.99902H259.181C258.116 7.99902 257.192 7.39746 256.73 6.51562C256.641 6.52393 256.551 6.52832 256.46 6.52832H255.36C253.833 6.52832 252.595 5.29053 252.595 3.76367C252.595 2.23633 253.833 0.998535 255.36 0.998535ZM267.52 0.998535H268.62C269.685 0.998535 270.609 1.6001 271.071 2.48193C271.16 2.47363 271.25 2.46924 271.341 2.46924H272.441C273.968 2.46924 275.206 3.70703 275.206 5.23389C275.206 6.76123 273.968 7.99902 272.441 7.99902H271.341C270.276 7.99902 269.352 7.39746 268.89 6.51562C268.801 6.52393 268.711 6.52832 268.62 6.52832H267.52C265.993 6.52832 264.755 5.29053 264.755 3.76367C264.755 2.23633 265.993 0.998535 267.52 0.998535ZM279.68 0.998535H280.78C281.845 0.998535 282.769 1.6001 283.231 2.48193C283.32 2.47363 283.41 2.46924 283.501 2.46924H284.601C286.128 2.46924 287.366 3.70703 287.366 5.23389C287.366 6.76123 286.128 7.99902 284.601 7.99902H283.501C282.436 7.99902 281.512 7.39746 281.05 6.51562C280.961 6.52393 280.871 6.52832 280.78 6.52832H279.68C278.153 6.52832 276.915 5.29053 276.915 3.76367C276.915 2.23633 278.153 0.998535 279.68 0.998535ZM291.84 0.998535H292.94C294.005 0.998535 294.929 1.6001 295.391 2.48193C295.48 2.47363 295.57 2.46924 295.661 2.46924H296.761C298.288 2.46924 299.526 3.70703 299.526 5.23389C299.526 6.76123 298.288 7.99902 296.761 7.99902H295.661C294.596 7.99902 293.672 7.39746 293.21 6.51562C293.121 6.52393 293.031 6.52832 292.94 6.52832H291.84C290.313 6.52832 289.075 5.29053 289.075 3.76367C289.075 2.23633 290.313 0.998535 291.84 0.998535ZM304 0.998535H305.1C306.165 0.998535 307.089 1.6001 307.551 2.48193C307.64 2.47363 307.729 2.46924 307.821 2.46924H308.921C310.448 2.46924 311.686 3.70703 311.686 5.23389C311.686 6.76123 310.448 7.99902 308.921 7.99902H307.821C306.756 7.99902 305.832 7.39746 305.37 6.51562C305.281 6.52393 305.191 6.52832 305.1 6.52832H304C302.473 6.52832 301.235 5.29053 301.235 3.76367C301.235 2.23633 302.473 0.998535 304 0.998535ZM316.16 0.998535H317.26C318.325 0.998535 319.249 1.6001 319.711 2.48193C319.8 2.47363 319.89 2.46924 319.981 2.46924H321.081C322.608 2.46924 323.846 3.70703 323.846 5.23389C323.846 6.76123 322.608 7.99902 321.081 7.99902H319.981C318.916 7.99902 317.992 7.39746 317.53 6.51562C317.441 6.52393 317.351 6.52832 317.26 6.52832H316.16C314.633 6.52832 313.395 5.29053 313.395 3.76367C313.395 2.23633 314.633 0.998535 316.16 0.998535ZM328.32 0.998535H329.42C330.485 0.998535 331.409 1.6001 331.871 2.48193C331.96 2.47363 332.05 2.46924 332.141 2.46924H333.241C334.768 2.46924 336.006 3.70703 336.006 5.23389C336.006 6.76123 334.768 7.99902 333.241 7.99902H332.141C331.076 7.99902 330.152 7.39746 329.69 6.51562C329.601 6.52393 329.511 6.52832 329.42 6.52832H328.32C326.793 6.52832 325.555 5.29053 325.555 3.76367C325.555 2.23633 326.793 0.998535 328.32 0.998535ZM340.48 0.998535H341.58C342.645 0.998535 343.569 1.6001 344.031 2.48193C344.12 2.47363 344.209 2.46924 344.301 2.46924H345.401C346.928 2.46924 348.166 3.70703 348.166 5.23389C348.166 6.76123 346.928 7.99902 345.401 7.99902H344.301C343.236 7.99902 342.312 7.39746 341.85 6.51562C341.761 6.52393 341.671 6.52832 341.58 6.52832H340.48C338.953 6.52832 337.715 5.29053 337.715 3.76367C337.715 2.23633 338.953 0.998535 340.48 0.998535ZM352.64 0.998535H353.74C354.805 0.998535 355.729 1.6001 356.191 2.48193C356.28 2.47363 356.37 2.46924 356.461 2.46924H357.561C359.088 2.46924 360.326 3.70703 360.326 5.23389C360.326 6.76123 359.088 7.99902 357.561 7.99902H356.461C355.396 7.99902 354.472 7.39746 354.01 6.51562C353.921 6.52393 353.831 6.52832 353.74 6.52832H352.64C351.113 6.52832 349.875 5.29053 349.875 3.76367C349.875 2.23633 351.113 0.998535 352.64 0.998535ZM364.8 0.998535H365.9C366.965 0.998535 367.889 1.6001 368.351 2.48193C368.44 2.47363 368.53 2.46924 368.621 2.46924H369.721C371.248 2.46924 372.486 3.70703 372.486 5.23389C372.486 6.76123 371.248 7.99902 369.721 7.99902H368.621C367.556 7.99902 366.632 7.39746 366.17 6.51562C366.081 6.52393 365.991 6.52832 365.9 6.52832H364.8C363.273 6.52832 362.035 5.29053 362.035 3.76367C362.035 2.23633 363.273 0.998535 364.8 0.998535ZM376.96 0.998535H378.06C379.125 0.998535 380.049 1.6001 380.511 2.48193C380.6 2.47363 380.69 2.46924 380.781 2.46924H381.881C383.408 2.46924 384.646 3.70703 384.646 5.23389C384.646 6.76123 383.408 7.99902 381.881 7.99902H380.781C379.716 7.99902 378.792 7.39746 378.33 6.51562C378.241 6.52393 378.151 6.52832 378.06 6.52832H376.96C375.433 6.52832 374.195 5.29053 374.195 3.76367C374.195 2.23633 375.433 0.998535 376.96 0.998535ZM389.12 0.998535H390.22C391.285 0.998535 392.209 1.6001 392.671 2.48193C392.76 2.47363 392.849 2.46924 392.941 2.46924H394.041C395.568 2.46924 396.806 3.70703 396.806 5.23389C396.806 6.76123 395.568 7.99902 394.041 7.99902H392.941C391.876 7.99902 390.952 7.39746 390.49 6.51562C390.401 6.52393 390.311 6.52832 390.22 6.52832H389.12C387.593 6.52832 386.355 5.29053 386.355 3.76367C386.355 2.23633 387.593 0.998535 389.12 0.998535ZM401.28 0.998535H402.38C403.445 0.998535 404.369 1.6001 404.831 2.48193C404.92 2.47363 405.01 2.46924 405.101 2.46924H406.201C407.728 2.46924 408.966 3.70703 408.966 5.23389C408.966 6.76123 407.728 7.99902 406.201 7.99902H405.101C404.036 7.99902 403.112 7.39746 402.65 6.51562C402.561 6.52393 402.471 6.52832 402.38 6.52832H401.28C399.753 6.52832 398.515 5.29053 398.515 3.76367C398.515 2.23633 399.753 0.998535 401.28 0.998535ZM413.44 0.998535H414.54C415.605 0.998535 416.529 1.6001 416.991 2.48193C417.08 2.47363 417.17 2.46924 417.261 2.46924H418.361C419.888 2.46924 421.126 3.70703 421.126 5.23389C421.126 6.76123 419.888 7.99902 418.361 7.99902H417.261C416.196 7.99902 415.272 7.39746 414.81 6.51562C414.721 6.52393 414.631 6.52832 414.54 6.52832H413.44C411.913 6.52832 410.675 5.29053 410.675 3.76367C410.675 2.23633 411.913 0.998535 413.44 0.998535ZM425.6 0.998535H426.7C427.765 0.998535 428.689 1.6001 429.151 2.48193C429.24 2.47363 429.329 2.46924 429.421 2.46924H430.521C432.048 2.46924 433.286 3.70703 433.286 5.23389C433.286 6.76123 432.048 7.99902 430.521 7.99902H429.421C428.356 7.99902 427.432 7.39746 426.97 6.51562C426.881 6.52393 426.791 6.52832 426.7 6.52832H425.6C424.073 6.52832 422.835 5.29053 422.835 3.76367C422.835 2.23633 424.073 0.998535 425.6 0.998535ZM437.76 0.998535H438.86C439.925 0.998535 440.849 1.6001 441.311 2.48193C441.4 2.47363 441.49 2.46924 441.581 2.46924H442.681C444.208 2.46924 445.446 3.70703 445.446 5.23389C445.446 6.76123 444.208 7.99902 442.681 7.99902H441.581C440.516 7.99902 439.592 7.39746 439.13 6.51562C439.041 6.52393 438.951 6.52832 438.86 6.52832H437.76C436.233 6.52832 434.995 5.29053 434.995 3.76367C434.995 2.23633 436.233 0.998535 437.76 0.998535ZM449.92 0.998535H451.02C452.085 0.998535 453.009 1.6001 453.471 2.48193C453.56 2.47363 453.65 2.46924 453.741 2.46924H454.841C456.368 2.46924 457.606 3.70703 457.606 5.23389C457.606 6.76123 456.368 7.99902 454.841 7.99902H453.741C452.676 7.99902 451.752 7.39746 451.29 6.51562C451.201 6.52393 451.111 6.52832 451.02 6.52832H449.92C448.393 6.52832 447.155 5.29053 447.155 3.76367C447.155 2.23633 448.393 0.998535 449.92 0.998535ZM462.08 0.998535H463.18C464.245 0.998535 465.169 1.6001 465.631 2.48193C465.72 2.47363 465.81 2.46924 465.901 2.46924H467.001C468.528 2.46924 469.766 3.70703 469.766 5.23389C469.766 6.76123 468.528 7.99902 467.001 7.99902H465.901C464.836 7.99902 463.912 7.39746 463.45 6.51562C463.361 6.52393 463.271 6.52832 463.18 6.52832H462.08C460.553 6.52832 459.315 5.29053 459.315 3.76367C459.315 2.23633 460.553 0.998535 462.08 0.998535ZM474.24 0.998535H475.34C476.405 0.998535 477.329 1.6001 477.791 2.48193C477.88 2.47363 477.969 2.46924 478.061 2.46924H479.161C480.688 2.46924 481.926 3.70703 481.926 5.23389C481.926 6.76123 480.688 7.99902 479.161 7.99902H478.061C476.996 7.99902 476.072 7.39746 475.61 6.51562C475.521 6.52393 475.431 6.52832 475.34 6.52832H474.24C472.713 6.52832 471.475 5.29053 471.475 3.76367C471.475 2.23633 472.713 0.998535 474.24 0.998535ZM486.4 0.998535H487.5C488.565 0.998535 489.489 1.6001 489.951 2.48193C490.04 2.47363 490.13 2.46924 490.221 2.46924H491.321C492.848 2.46924 494.086 3.70703 494.086 5.23389C494.086 6.76123 492.848 7.99902 491.321 7.99902H490.221C489.156 7.99902 488.232 7.39746 487.77 6.51562C487.681 6.52393 487.591 6.52832 487.5 6.52832H486.4C484.873 6.52832 483.635 5.29053 483.635 3.76367C483.635 2.23633 484.873 0.998535 486.4 0.998535ZM498.56 0.998535H499.66C500.725 0.998535 501.649 1.6001 502.111 2.48193C502.2 2.47363 502.29 2.46924 502.381 2.46924H503.481C505.008 2.46924 506.246 3.70703 506.246 5.23389C506.246 6.76123 505.008 7.99902 503.481 7.99902H502.381C501.316 7.99902 500.392 7.39746 499.93 6.51562C499.841 6.52393 499.751 6.52832 499.66 6.52832H498.56C497.033 6.52832 495.795 5.29053 495.795 3.76367C495.795 2.23633 497.033 0.998535 498.56 0.998535ZM510.72 0.998535H511.82C512.885 0.998535 513.809 1.6001 514.271 2.48193C514.36 2.47363 514.45 2.46924 514.541 2.46924H515.641C517.168 2.46924 518.406 3.70703 518.406 5.23389C518.406 6.76123 517.168 7.99902 515.641 7.99902H514.541C513.476 7.99902 512.552 7.39746 512.09 6.51562C512.001 6.52393 511.911 6.52832 511.82 6.52832H510.72C509.193 6.52832 507.955 5.29053 507.955 3.76367C507.955 2.23633 509.193 0.998535 510.72 0.998535ZM522.88 0.998535H523.98C525.045 0.998535 525.969 1.6001 526.431 2.48193C526.52 2.47363 526.609 2.46924 526.701 2.46924H527.801C529.328 2.46924 530.566 3.70703 530.566 5.23389C530.566 6.76123 529.328 7.99902 527.801 7.99902H526.701C525.636 7.99902 524.712 7.39746 524.25 6.51562C524.161 6.52393 524.071 6.52832 523.98 6.52832H522.88C521.353 6.52832 520.115 5.29053 520.115 3.76367C520.115 2.23633 521.353 0.998535 522.88 0.998535ZM535.04 0.998535H536.14C537.205 0.998535 538.129 1.6001 538.591 2.48193C538.68 2.47363 538.77 2.46924 538.861 2.46924H539.961C541.488 2.46924 542.726 3.70703 542.726 5.23389C542.726 6.76123 541.488 7.99902 539.961 7.99902H538.861C537.796 7.99902 536.872 7.39746 536.41 6.51562C536.321 6.52393 536.231 6.52832 536.14 6.52832H535.04C533.513 6.52832 532.275 5.29053 532.275 3.76367C532.275 2.23633 533.513 0.998535 535.04 0.998535ZM547.2 0.998535H548.3C549.365 0.998535 550.289 1.6001 550.751 2.48193C550.84 2.47363 550.93 2.46924 551.021 2.46924H552.121C553.648 2.46924 554.886 3.70703 554.886 5.23389C554.886 6.76123 553.648 7.99902 552.121 7.99902H551.021C549.956 7.99902 549.032 7.39746 548.57 6.51562C548.481 6.52393 548.391 6.52832 548.3 6.52832H547.2C545.673 6.52832 544.435 5.29053 544.435 3.76367C544.435 2.23633 545.673 0.998535 547.2 0.998535ZM559.36 0.998535H560.46C561.525 0.998535 562.449 1.6001 562.911 2.48193C563 2.47363 563.089 2.46924 563.181 2.46924H564.281C565.808 2.46924 567.046 3.70703 567.046 5.23389C567.046 6.76123 565.808 7.99902 564.281 7.99902H563.181C562.116 7.99902 561.192 7.39746 560.73 6.51562C560.641 6.52393 560.551 6.52832 560.46 6.52832H559.36C557.833 6.52832 556.595 5.29053 556.595 3.76367C556.595 2.23633 557.833 0.998535 559.36 0.998535ZM571.52 0.998535H572.62C573.685 0.998535 574.609 1.6001 575.071 2.48193C575.16 2.47363 575.25 2.46924 575.341 2.46924H576.441C577.968 2.46924 579.206 3.70703 579.206 5.23389C579.206 6.76123 577.968 7.99902 576.441 7.99902H575.341C574.276 7.99902 573.352 7.39746 572.89 6.51562C572.801 6.52393 572.711 6.52832 572.62 6.52832H571.52C569.993 6.52832 568.755 5.29053 568.755 3.76367C568.755 2.23633 569.993 0.998535 571.52 0.998535ZM583.68 0.998535H584.78C585.845 0.998535 586.769 1.6001 587.231 2.48193C587.32 2.47363 587.41 2.46924 587.501 2.46924H588.601C590.128 2.46924 591.366 3.70703 591.366 5.23389C591.366 6.76123 590.128 7.99902 588.601 7.99902H587.501C586.436 7.99902 585.512 7.39746 585.05 6.51562C584.961 6.52393 584.871 6.52832 584.78 6.52832H583.68C582.153 6.52832 580.915 5.29053 580.915 3.76367C580.915 2.23633 582.153 0.998535 583.68 0.998535ZM595.84 0.998535H596.94C598.005 0.998535 598.929 1.6001 599.391 2.48193C599.48 2.47363 599.57 2.46924 599.661 2.46924H600.761C602.288 2.46924 603.526 3.70703 603.526 5.23389C603.526 6.76123 602.288 7.99902 600.761 7.99902H599.661C598.596 7.99902 597.672 7.39746 597.21 6.51562C597.121 6.52393 597.031 6.52832 596.94 6.52832H595.84C594.313 6.52832 593.075 5.29053 593.075 3.76367C593.075 2.23633 594.313 0.998535 595.84 0.998535ZM608 0.998535H609.1C610.165 0.998535 611.089 1.6001 611.551 2.48193C611.64 2.47363 611.73 2.46924 611.821 2.46924H612.921C614.448 2.46924 615.686 3.70703 615.686 5.23389C615.686 6.76123 614.448 7.99902 612.921 7.99902H611.821C610.756 7.99902 609.832 7.39746 609.37 6.51562C609.281 6.52393 609.191 6.52832 609.1 6.52832H608C606.473 6.52832 605.235 5.29053 605.235 3.76367C605.235 2.23633 606.473 0.998535 608 0.998535ZM620.16 0.998535H621.26C622.325 0.998535 623.249 1.6001 623.711 2.48193C623.8 2.47363 623.89 2.46924 623.981 2.46924H625.081C626.608 2.46924 627.846 3.70703 627.846 5.23389C627.846 6.76123 626.608 7.99902 625.081 7.99902H623.981C622.916 7.99902 621.992 7.39746 621.53 6.51562C621.441 6.52393 621.351 6.52832 621.26 6.52832H620.16C618.633 6.52832 617.395 5.29053 617.395 3.76367C617.395 2.23633 618.633 0.998535 620.16 0.998535ZM632.32 0.998535H633.42C634.485 0.998535 635.409 1.6001 635.871 2.48193C635.96 2.47363 636.049 2.46924 636.141 2.46924H637.241C638.768 2.46924 640.006 3.70703 640.006 5.23389C640.006 6.76123 638.768 7.99902 637.241 7.99902H636.141C635.076 7.99902 634.152 7.39746 633.69 6.51562C633.601 6.52393 633.511 6.52832 633.42 6.52832H632.32C630.793 6.52832 629.555 5.29053 629.555 3.76367C629.555 2.23633 630.793 0.998535 632.32 0.998535ZM644.48 0.998535H645.58C646.645 0.998535 647.569 1.6001 648.031 2.48193C648.12 2.47363 648.21 2.46924 648.301 2.46924H649.401C650.928 2.46924 652.166 3.70703 652.166 5.23389C652.166 6.76123 650.928 7.99902 649.401 7.99902H648.301C647.236 7.99902 646.312 7.39746 645.85 6.51562C645.761 6.52393 645.671 6.52832 645.58 6.52832H644.48C642.953 6.52832 641.715 5.29053 641.715 3.76367C641.715 2.23633 642.953 0.998535 644.48 0.998535ZM656.64 0.998535H657.74C658.805 0.998535 659.729 1.6001 660.191 2.48193C660.28 2.47363 660.37 2.46924 660.461 2.46924H661.561C663.088 2.46924 664.326 3.70703 664.326 5.23389C664.326 6.76123 663.088 7.99902 661.561 7.99902H660.461C659.396 7.99902 658.472 7.39746 658.01 6.51562C657.921 6.52393 657.831 6.52832 657.74 6.52832H656.64C655.113 6.52832 653.875 5.29053 653.875 3.76367C653.875 2.23633 655.113 0.998535 656.64 0.998535ZM668.8 0.998535H669.9C670.965 0.998535 671.889 1.6001 672.351 2.48193C672.44 2.47363 672.53 2.46924 672.621 2.46924H673.721C675.248 2.46924 676.486 3.70703 676.486 5.23389C676.486 6.76123 675.248 7.99902 673.721 7.99902H672.621C671.556 7.99902 670.632 7.39746 670.17 6.51562C670.081 6.52393 669.991 6.52832 669.9 6.52832H668.8C667.273 6.52832 666.035 5.29053 666.035 3.76367C666.035 2.23633 667.273 0.998535 668.8 0.998535ZM680.96 0.998535H682.06C683.125 0.998535 684.049 1.6001 684.511 2.48193C684.6 2.47363 684.69 2.46924 684.781 2.46924H685.881C687.408 2.46924 688.646 3.70703 688.646 5.23389C688.646 6.76123 687.408 7.99902 685.881 7.99902H684.781C683.716 7.99902 682.792 7.39746 682.33 6.51562C682.241 6.52393 682.151 6.52832 682.06 6.52832H680.96C679.433 6.52832 678.195 5.29053 678.195 3.76367C678.195 2.23633 679.433 0.998535 680.96 0.998535ZM693.12 0.998535H694.22C695.285 0.998535 696.209 1.6001 696.671 2.48193C696.76 2.47363 696.85 2.46924 696.941 2.46924H698.041C699.568 2.46924 700.806 3.70703 700.806 5.23389C700.806 6.76123 699.568 7.99902 698.041 7.99902H696.941C695.876 7.99902 694.952 7.39746 694.49 6.51562C694.401 6.52393 694.311 6.52832 694.22 6.52832H693.12C691.593 6.52832 690.355 5.29053 690.355 3.76367C690.355 2.23633 691.593 0.998535 693.12 0.998535ZM705.28 0.998535H706.38C707.445 0.998535 708.369 1.6001 708.831 2.48193C708.92 2.47363 709.01 2.46924 709.101 2.46924H710.201C711.728 2.46924 712.966 3.70703 712.966 5.23389C712.966 6.76123 711.728 7.99902 710.201 7.99902H709.101C708.036 7.99902 707.112 7.39746 706.65 6.51562C706.561 6.52393 706.471 6.52832 706.38 6.52832H705.28C703.753 6.52832 702.515 5.29053 702.515 3.76367C702.515 2.23633 703.753 0.998535 705.28 0.998535ZM717.44 0.998535H718.54C719.605 0.998535 720.529 1.6001 720.991 2.48193C721.08 2.47363 721.17 2.46924 721.261 2.46924H722.361C723.888 2.46924 725.126 3.70703 725.126 5.23389C725.126 6.76123 723.888 7.99902 722.361 7.99902H721.261C720.196 7.99902 719.272 7.39746 718.81 6.51562C718.721 6.52393 718.631 6.52832 718.54 6.52832H717.44C715.913 6.52832 714.675 5.29053 714.675 3.76367C714.675 2.23633 715.913 0.998535 717.44 0.998535ZM729.6 0.998535H730.7C731.765 0.998535 732.689 1.6001 733.151 2.48193C733.24 2.47363 733.329 2.46924 733.421 2.46924H734.521C736.048 2.46924 737.286 3.70703 737.286 5.23389C737.286 6.76123 736.048 7.99902 734.521 7.99902H733.421C732.356 7.99902 731.432 7.39746 730.97 6.51562C730.881 6.52393 730.791 6.52832 730.7 6.52832H729.6C728.073 6.52832 726.835 5.29053 726.835 3.76367C726.835 2.23633 728.073 0.998535 729.6 0.998535ZM741.76 0.998535H742.86C743.925 0.998535 744.849 1.6001 745.311 2.48193C745.4 2.47363 745.49 2.46924 745.581 2.46924H746.681C748.208 2.46924 749.446 3.70703 749.446 5.23389C749.446 6.76123 748.208 7.99902 746.681 7.99902H745.581C744.516 7.99902 743.592 7.39746 743.13 6.51562C743.041 6.52393 742.951 6.52832 742.86 6.52832H741.76C740.233 6.52832 738.995 5.29053 738.995 3.76367C738.995 2.23633 740.233 0.998535 741.76 0.998535ZM753.92 0.998535H755.02C756.085 0.998535 757.009 1.6001 757.471 2.48193C757.56 2.47363 757.65 2.46924 757.741 2.46924H758.841C760.368 2.46924 761.606 3.70703 761.606 5.23389C761.606 6.76123 760.368 7.99902 758.841 7.99902H757.741C756.676 7.99902 755.752 7.39746 755.29 6.51562C755.201 6.52393 755.111 6.52832 755.02 6.52832H753.92C752.393 6.52832 751.155 5.29053 751.155 3.76367C751.155 2.23633 752.393 0.998535 753.92 0.998535ZM766.08 0.998535H767.18C768.245 0.998535 769.169 1.6001 769.631 2.48193C769.72 2.47363 769.809 2.46924 769.901 2.46924H771.001C772.528 2.46924 773.766 3.70703 773.766 5.23389C773.766 6.76123 772.528 7.99902 771.001 7.99902H769.901C768.836 7.99902 767.912 7.39746 767.45 6.51562C767.361 6.52393 767.271 6.52832 767.18 6.52832H766.08C764.553 6.52832 763.315 5.29053 763.315 3.76367C763.315 2.23633 764.553 0.998535 766.08 0.998535ZM778.24 0.998535H779.34C780.405 0.998535 781.329 1.6001 781.791 2.48193C781.88 2.47363 781.97 2.46924 782.061 2.46924H783.161C784.688 2.46924 785.926 3.70703 785.926 5.23389C785.926 6.76123 784.688 7.99902 783.161 7.99902H782.061C780.996 7.99902 780.072 7.39746 779.61 6.51562C779.521 6.52393 779.431 6.52832 779.34 6.52832H778.24C776.713 6.52832 775.475 5.29053 775.475 3.76367C775.475 2.23633 776.713 0.998535 778.24 0.998535ZM790.4 0.998535H791.5C792.565 0.998535 793.489 1.6001 793.951 2.48193C794.04 2.47363 794.13 2.46924 794.221 2.46924H795.321C796.848 2.46924 798.086 3.70703 798.086 5.23389C798.086 6.76123 796.848 7.99902 795.321 7.99902H794.221C793.156 7.99902 792.232 7.39746 791.77 6.51562C791.681 6.52393 791.591 6.52832 791.5 6.52832H790.4C788.873 6.52832 787.635 5.29053 787.635 3.76367C787.635 2.23633 788.873 0.998535 790.4 0.998535ZM802.56 0.998535H803.66C804.725 0.998535 805.649 1.6001 806.111 2.48193C806.2 2.47363 806.29 2.46924 806.381 2.46924H807.481C809.008 2.46924 810.246 3.70703 810.246 5.23389C810.246 6.76123 809.008 7.99902 807.481 7.99902H806.381C805.316 7.99902 804.392 7.39746 803.93 6.51562C803.841 6.52393 803.751 6.52832 803.66 6.52832H802.56C801.033 6.52832 799.795 5.29053 799.795 3.76367C799.795 2.23633 801.033 0.998535 802.56 0.998535ZM814.72 0.998535H815.82C816.885 0.998535 817.809 1.6001 818.271 2.48193C818.359 2.47363 818.45 2.46924 818.541 2.46924H819.641C821.168 2.46924 822.406 3.70703 822.406 5.23389C822.406 6.76123 821.168 7.99902 819.641 7.99902H818.541C817.476 7.99902 816.552 7.39746 816.09 6.51562C816.001 6.52393 815.911 6.52832 815.82 6.52832H814.72C813.193 6.52832 811.955 5.29053 811.955 3.76367C811.955 2.23633 813.193 0.998535 814.72 0.998535ZM826.88 0.998535H827.98C829.045 0.998535 829.969 1.6001 830.431 2.48193C830.52 2.47363 830.609 2.46924 830.701 2.46924H831.801C833.328 2.46924 834.566 3.70703 834.566 5.23389C834.566 6.76123 833.328 7.99902 831.801 7.99902H830.701C829.636 7.99902 828.712 7.39746 828.25 6.51562C828.161 6.52393 828.071 6.52832 827.98 6.52832H826.88C825.353 6.52832 824.115 5.29053 824.115 3.76367C824.115 2.23633 825.353 0.998535 826.88 0.998535ZM839.04 0.998535H840.14C841.205 0.998535 842.129 1.6001 842.591 2.48193C842.68 2.47363 842.77 2.46924 842.861 2.46924H843.961C845.488 2.46924 846.726 3.70703 846.726 5.23389C846.726 6.76123 845.488 7.99902 843.961 7.99902H842.861C841.796 7.99902 840.872 7.39746 840.41 6.51562C840.321 6.52393 840.231 6.52832 840.14 6.52832H839.04C837.513 6.52832 836.275 5.29053 836.275 3.76367C836.275 2.23633 837.513 0.998535 839.04 0.998535ZM851.2 0.998535H852.3C853.365 0.998535 854.289 1.6001 854.751 2.48193C854.839 2.47363 854.93 2.46924 855.021 2.46924H856.121C857.648 2.46924 858.886 3.70703 858.886 5.23389C858.886 6.76123 857.648 7.99902 856.121 7.99902H855.021C853.956 7.99902 853.032 7.39746 852.57 6.51562C852.481 6.52393 852.391 6.52832 852.3 6.52832H851.2C849.673 6.52832 848.435 5.29053 848.435 3.76367C848.435 2.23633 849.673 0.998535 851.2 0.998535ZM863.36 0.998535H864.46C865.525 0.998535 866.449 1.6001 866.911 2.48193C867 2.47363 867.089 2.46924 867.181 2.46924H868.281C869.808 2.46924 871.046 3.70703 871.046 5.23389C871.046 6.76123 869.808 7.99902 868.281 7.99902H867.181C866.116 7.99902 865.192 7.39746 864.73 6.51562C864.641 6.52393 864.551 6.52832 864.46 6.52832H863.36C861.833 6.52832 860.595 5.29053 860.595 3.76367C860.595 2.23633 861.833 0.998535 863.36 0.998535ZM875.52 0.998535H876.62C877.685 0.998535 878.609 1.6001 879.071 2.48193C879.16 2.47363 879.25 2.46924 879.341 2.46924H880.441C881.968 2.46924 883.206 3.70703 883.206 5.23389C883.206 6.76123 881.968 7.99902 880.441 7.99902H879.341C878.276 7.99902 877.352 7.39746 876.89 6.51562C876.801 6.52393 876.711 6.52832 876.62 6.52832H875.52C873.993 6.52832 872.755 5.29053 872.755 3.76367C872.755 2.23633 873.993 0.998535 875.52 0.998535ZM887.68 0.998535H888.78C889.845 0.998535 890.769 1.6001 891.231 2.48193C891.32 2.47363 891.41 2.46924 891.501 2.46924H892.601C894.128 2.46924 895.366 3.70703 895.366 5.23389C895.366 6.76123 894.128 7.99902 892.601 7.99902H891.501C890.436 7.99902 889.512 7.39746 889.05 6.51562C888.961 6.52393 888.871 6.52832 888.78 6.52832H887.68C886.153 6.52832 884.915 5.29053 884.915 3.76367C884.915 2.23633 886.153 0.998535 887.68 0.998535ZM899.84 0.998535H900.94C902.005 0.998535 902.929 1.6001 903.391 2.48193C903.48 2.47363 903.569 2.46924 903.661 2.46924H904.761C906.288 2.46924 907.526 3.70703 907.526 5.23389C907.526 6.76123 906.288 7.99902 904.761 7.99902H903.661C902.596 7.99902 901.672 7.39746 901.21 6.51562C901.121 6.52393 901.031 6.52832 900.94 6.52832H899.84C898.313 6.52832 897.075 5.29053 897.075 3.76367C897.075 2.23633 898.313 0.998535 899.84 0.998535ZM912 0.998535H913.1C914.165 0.998535 915.089 1.6001 915.551 2.48193C915.64 2.47363 915.73 2.46924 915.821 2.46924H916.921C918.448 2.46924 919.686 3.70703 919.686 5.23389C919.686 6.76123 918.448 7.99902 916.921 7.99902H915.821C914.756 7.99902 913.832 7.39746 913.37 6.51562C913.281 6.52393 913.191 6.52832 913.1 6.52832H912C910.473 6.52832 909.235 5.29053 909.235 3.76367C909.235 2.23633 910.473 0.998535 912 0.998535ZM924.16 0.998535H925.26C926.325 0.998535 927.249 1.6001 927.711 2.48193C927.8 2.47363 927.89 2.46924 927.981 2.46924H929.081C930.608 2.46924 931.846 3.70703 931.846 5.23389C931.846 6.76123 930.608 7.99902 929.081 7.99902H927.981C926.916 7.99902 925.992 7.39746 925.53 6.51562C925.441 6.52393 925.351 6.52832 925.26 6.52832H924.16C922.633 6.52832 921.395 5.29053 921.395 3.76367C921.395 2.23633 922.633 0.998535 924.16 0.998535ZM936.32 0.998535H937.42C938.484 0.998535 939.409 1.6001 939.871 2.48193C939.96 2.47363 940.049 2.46924 940.141 2.46924H941.241C942.768 2.46924 944.006 3.70703 944.006 5.23389C944.006 6.76123 942.768 7.99902 941.241 7.99902H940.141C939.076 7.99902 938.152 7.39746 937.69 6.51562C937.601 6.52393 937.511 6.52832 937.42 6.52832H936.32C934.793 6.52832 933.555 5.29053 933.555 3.76367C933.555 2.23633 934.793 0.998535 936.32 0.998535ZM948.48 0.998535H949.58C950.645 0.998535 951.569 1.6001 952.031 2.48193C952.12 2.47363 952.21 2.46924 952.301 2.46924H953.401C954.928 2.46924 956.166 3.70703 956.166 5.23389C956.166 6.76123 954.928 7.99902 953.401 7.99902H952.301C951.236 7.99902 950.312 7.39746 949.85 6.51562C949.761 6.52393 949.671 6.52832 949.58 6.52832H948.48C946.953 6.52832 945.715 5.29053 945.715 3.76367C945.715 2.23633 946.953 0.998535 948.48 0.998535ZM960.64 0.998535H961.74C962.805 0.998535 963.729 1.6001 964.191 2.48193C964.28 2.47363 964.37 2.46924 964.461 2.46924H965.561C967.088 2.46924 968.326 3.70703 968.326 5.23389C968.326 6.76123 967.088 7.99902 965.561 7.99902H964.461C963.396 7.99902 962.472 7.39746 962.01 6.51562C961.921 6.52393 961.831 6.52832 961.74 6.52832H960.64C959.113 6.52832 957.875 5.29053 957.875 3.76367C957.875 2.23633 959.113 0.998535 960.64 0.998535ZM972.8 0.998535H973.9C974.965 0.998535 975.889 1.6001 976.351 2.48193C976.44 2.47363 976.53 2.46924 976.621 2.46924H977.721C979.248 2.46924 980.486 3.70703 980.486 5.23389C980.486 6.76123 979.248 7.99902 977.721 7.99902H976.621C975.556 7.99902 974.632 7.39746 974.17 6.51562C974.081 6.52393 973.991 6.52832 973.9 6.52832H972.8C971.273 6.52832 970.035 5.29053 970.035 3.76367C970.035 2.23633 971.273 0.998535 972.8 0.998535ZM984.96 0.998535H986.06C987.125 0.998535 988.049 1.6001 988.511 2.48193C988.599 2.47363 988.69 2.46924 988.781 2.46924H989.881C991.408 2.46924 992.646 3.70703 992.646 5.23389C992.646 6.76123 991.408 7.99902 989.881 7.99902H988.781C987.716 7.99902 986.792 7.39746 986.33 6.51562C986.241 6.52393 986.151 6.52832 986.06 6.52832H984.96C983.433 6.52832 982.195 5.29053 982.195 3.76367C982.195 2.23633 983.433 0.998535 984.96 0.998535ZM997.12 0.998535H998.22C999.285 0.998535 1000.21 1.6001 1000.67 2.48193C1000.76 2.47363 1000.85 2.46924 1000.94 2.46924H1002.04C1003.57 2.46924 1004.81 3.70703 1004.81 5.23389C1004.81 6.76123 1003.57 7.99902 1002.04 7.99902H1000.94C999.876 7.99902 998.952 7.39746 998.49 6.51562C998.401 6.52393 998.311 6.52832 998.22 6.52832H997.12C995.593 6.52832 994.355 5.29053 994.355 3.76367C994.355 2.23633 995.593 0.998535 997.12 0.998535ZM1009.28 0.998535H1010.38C1011.44 0.998535 1012.37 1.6001 1012.83 2.48193C1012.92 2.47363 1013.01 2.46924 1013.1 2.46924H1014.2C1015.73 2.46924 1016.97 3.70703 1016.97 5.23389C1016.97 6.76123 1015.73 7.99902 1014.2 7.99902H1013.1C1012.04 7.99902 1011.11 7.39746 1010.65 6.51562C1010.56 6.52393 1010.47 6.52832 1010.38 6.52832H1009.28C1007.75 6.52832 1006.52 5.29053 1006.52 3.76367C1006.52 2.23633 1007.75 0.998535 1009.28 0.998535ZM1021.44 0.998535H1022.54C1023.6 0.998535 1024.53 1.6001 1024.99 2.48193C1025.08 2.47363 1025.17 2.46924 1025.26 2.46924H1026.36C1027.89 2.46924 1029.13 3.70703 1029.13 5.23389C1029.13 6.76123 1027.89 7.99902 1026.36 7.99902H1025.26C1024.2 7.99902 1023.27 7.39746 1022.81 6.51562C1022.72 6.52393 1022.63 6.52832 1022.54 6.52832H1021.44C1019.91 6.52832 1018.67 5.29053 1018.67 3.76367C1018.67 2.23633 1019.91 0.998535 1021.44 0.998535ZM1033.6 0.998535H1034.7C1035.76 0.998535 1036.69 1.6001 1037.15 2.48193C1037.24 2.47363 1037.33 2.46924 1037.42 2.46924H1038.52C1040.05 2.46924 1041.29 3.70703 1041.29 5.23389C1041.29 6.76123 1040.05 7.99902 1038.52 7.99902H1037.42C1036.36 7.99902 1035.43 7.39746 1034.97 6.51562C1034.88 6.52393 1034.79 6.52832 1034.7 6.52832H1033.6C1032.07 6.52832 1030.84 5.29053 1030.84 3.76367C1030.84 2.23633 1032.07 0.998535 1033.6 0.998535ZM1045.76 0.998535H1046.86C1047.92 0.998535 1048.85 1.6001 1049.31 2.48193C1049.4 2.47363 1049.49 2.46924 1049.58 2.46924H1050.68C1052.21 2.46924 1053.45 3.70703 1053.45 5.23389C1053.45 6.76123 1052.21 7.99902 1050.68 7.99902H1049.58C1048.52 7.99902 1047.59 7.39746 1047.13 6.51562C1047.04 6.52393 1046.95 6.52832 1046.86 6.52832H1045.76C1044.23 6.52832 1042.99 5.29053 1042.99 3.76367C1042.99 2.23633 1044.23 0.998535 1045.76 0.998535ZM1057.92 0.998535H1059.02C1060.08 0.998535 1061.01 1.6001 1061.47 2.48193C1061.56 2.47363 1061.65 2.46924 1061.74 2.46924H1062.84C1064.37 2.46924 1065.61 3.70703 1065.61 5.23389C1065.61 6.76123 1064.37 7.99902 1062.84 7.99902H1061.74C1060.68 7.99902 1059.75 7.39746 1059.29 6.51562C1059.2 6.52393 1059.11 6.52832 1059.02 6.52832H1057.92C1056.39 6.52832 1055.16 5.29053 1055.16 3.76367C1055.16 2.23633 1056.39 0.998535 1057.92 0.998535ZM1070.08 0.998535H1071.18C1072.24 0.998535 1073.17 1.6001 1073.63 2.48193C1073.72 2.47363 1073.81 2.46924 1073.9 2.46924H1075C1076.53 2.46924 1077.77 3.70703 1077.77 5.23389C1077.77 6.76123 1076.53 7.99902 1075 7.99902H1073.9C1072.84 7.99902 1071.91 7.39746 1071.45 6.51562C1071.36 6.52393 1071.27 6.52832 1071.18 6.52832H1070.08C1068.55 6.52832 1067.32 5.29053 1067.32 3.76367C1067.32 2.23633 1068.55 0.998535 1070.08 0.998535ZM1082.24 0.998535H1083.34C1084.4 0.998535 1085.33 1.6001 1085.79 2.48193C1085.88 2.47363 1085.97 2.46924 1086.06 2.46924H1087.16C1088.69 2.46924 1089.93 3.70703 1089.93 5.23389C1089.93 6.76123 1088.69 7.99902 1087.16 7.99902H1086.06C1085 7.99902 1084.07 7.39746 1083.61 6.51562C1083.52 6.52393 1083.43 6.52832 1083.34 6.52832H1082.24C1080.71 6.52832 1079.47 5.29053 1079.47 3.76367C1079.47 2.23633 1080.71 0.998535 1082.24 0.998535ZM1094.4 0.998535H1095.5C1096.56 0.998535 1097.49 1.6001 1097.95 2.48193C1098.04 2.47363 1098.13 2.46924 1098.22 2.46924H1099.32C1100.85 2.46924 1102.09 3.70703 1102.09 5.23389C1102.09 6.76123 1100.85 7.99902 1099.32 7.99902H1098.22C1097.16 7.99902 1096.23 7.39746 1095.77 6.51562C1095.68 6.52393 1095.59 6.52832 1095.5 6.52832H1094.4C1092.87 6.52832 1091.64 5.29053 1091.64 3.76367C1091.64 2.23633 1092.87 0.998535 1094.4 0.998535ZM1106.56 0.998535H1107.66C1108.72 0.998535 1109.65 1.6001 1110.11 2.48193C1110.2 2.47363 1110.29 2.46924 1110.38 2.46924H1111.48C1113.01 2.46924 1114.25 3.70703 1114.25 5.23389C1114.25 6.76123 1113.01 7.99902 1111.48 7.99902H1110.38C1109.32 7.99902 1108.39 7.39746 1107.93 6.51562C1107.84 6.52393 1107.75 6.52832 1107.66 6.52832H1106.56C1105.03 6.52832 1103.8 5.29053 1103.8 3.76367C1103.8 2.23633 1105.03 0.998535 1106.56 0.998535ZM1118.72 0.998535H1119.82C1120.88 0.998535 1121.81 1.6001 1122.27 2.48193C1122.36 2.47363 1122.45 2.46924 1122.54 2.46924H1123.64C1125.17 2.46924 1126.41 3.70703 1126.41 5.23389C1126.41 6.76123 1125.17 7.99902 1123.64 7.99902H1122.54C1121.48 7.99902 1120.55 7.39746 1120.09 6.51562C1120 6.52393 1119.91 6.52832 1119.82 6.52832H1118.72C1117.19 6.52832 1115.95 5.29053 1115.95 3.76367C1115.95 2.23633 1117.19 0.998535 1118.72 0.998535ZM1130.88 0.998535H1131.98C1133.04 0.998535 1133.97 1.6001 1134.43 2.48193C1134.52 2.47363 1134.61 2.46924 1134.7 2.46924H1135.8C1137.33 2.46924 1138.57 3.70703 1138.57 5.23389C1138.57 6.76123 1137.33 7.99902 1135.8 7.99902H1134.7C1133.64 7.99902 1132.71 7.39746 1132.25 6.51562C1132.16 6.52393 1132.07 6.52832 1131.98 6.52832H1130.88C1129.35 6.52832 1128.11 5.29053 1128.11 3.76367C1128.11 2.23633 1129.35 0.998535 1130.88 0.998535ZM1143.04 0.998535H1144.14C1145.2 0.998535 1146.13 1.6001 1146.59 2.48193C1146.68 2.47363 1146.77 2.46924 1146.86 2.46924H1147.96C1149.49 2.46924 1150.73 3.70703 1150.73 5.23389C1150.73 6.76123 1149.49 7.99902 1147.96 7.99902H1146.86C1145.8 7.99902 1144.87 7.39746 1144.41 6.51562C1144.32 6.52393 1144.23 6.52832 1144.14 6.52832H1143.04C1141.51 6.52832 1140.28 5.29053 1140.28 3.76367C1140.28 2.23633 1141.51 0.998535 1143.04 0.998535ZM1155.2 0.998535H1156.3C1157.36 0.998535 1158.29 1.6001 1158.75 2.48193C1158.84 2.47363 1158.93 2.46924 1159.02 2.46924H1160.12C1161.65 2.46924 1162.89 3.70703 1162.89 5.23389C1162.89 6.76123 1161.65 7.99902 1160.12 7.99902H1159.02C1157.96 7.99902 1157.03 7.39746 1156.57 6.51562C1156.48 6.52393 1156.39 6.52832 1156.3 6.52832H1155.2C1153.67 6.52832 1152.43 5.29053 1152.43 3.76367C1152.43 2.23633 1153.67 0.998535 1155.2 0.998535ZM1167.36 0.998535H1168.46C1169.52 0.998535 1170.45 1.6001 1170.91 2.48193C1171 2.47363 1171.09 2.46924 1171.18 2.46924H1172.28C1173.81 2.46924 1175.05 3.70703 1175.05 5.23389C1175.05 6.76123 1173.81 7.99902 1172.28 7.99902H1171.18C1170.12 7.99902 1169.19 7.39746 1168.73 6.51562C1168.64 6.52393 1168.55 6.52832 1168.46 6.52832H1167.36C1165.83 6.52832 1164.59 5.29053 1164.59 3.76367C1164.59 2.23633 1165.83 0.998535 1167.36 0.998535ZM1179.52 0.998535H1180.62C1181.68 0.998535 1182.61 1.6001 1183.07 2.48193C1183.16 2.47363 1183.25 2.46924 1183.34 2.46924H1184.44C1185.97 2.46924 1187.21 3.70703 1187.21 5.23389C1187.21 6.76123 1185.97 7.99902 1184.44 7.99902H1183.34C1182.28 7.99902 1181.35 7.39746 1180.89 6.51562C1180.8 6.52393 1180.71 6.52832 1180.62 6.52832H1179.52C1177.99 6.52832 1176.76 5.29053 1176.76 3.76367C1176.76 2.23633 1177.99 0.998535 1179.52 0.998535ZM1191.68 0.998535H1192.78C1193.84 0.998535 1194.77 1.6001 1195.23 2.48193C1195.32 2.47363 1195.41 2.46924 1195.5 2.46924H1196.6C1198.13 2.46924 1199.37 3.70703 1199.37 5.23389C1199.37 6.76123 1198.13 7.99902 1196.6 7.99902H1195.5C1194.44 7.99902 1193.51 7.39746 1193.05 6.51562C1192.96 6.52393 1192.87 6.52832 1192.78 6.52832H1191.68C1190.15 6.52832 1188.92 5.29053 1188.92 3.76367C1188.92 2.23633 1190.15 0.998535 1191.68 0.998535ZM1203.84 0.998535H1204.94C1206 0.998535 1206.93 1.6001 1207.39 2.48193C1207.48 2.47363 1207.57 2.46924 1207.66 2.46924H1208.76C1210.29 2.46924 1211.53 3.70703 1211.53 5.23389C1211.53 6.76123 1210.29 7.99902 1208.76 7.99902H1207.66C1206.6 7.99902 1205.67 7.39746 1205.21 6.51562C1205.12 6.52393 1205.03 6.52832 1204.94 6.52832H1203.84C1202.31 6.52832 1201.08 5.29053 1201.08 3.76367C1201.08 2.23633 1202.31 0.998535 1203.84 0.998535ZM1216 0.998535H1217.1C1218.16 0.998535 1219.09 1.6001 1219.55 2.48193C1219.64 2.47363 1219.73 2.46924 1219.82 2.46924H1220.92C1222.45 2.46924 1223.69 3.70703 1223.69 5.23389C1223.69 6.76123 1222.45 7.99902 1220.92 7.99902H1219.82C1218.76 7.99902 1217.83 7.39746 1217.37 6.51562C1217.28 6.52393 1217.19 6.52832 1217.1 6.52832H1216C1214.47 6.52832 1213.23 5.29053 1213.23 3.76367C1213.23 2.23633 1214.47 0.998535 1216 0.998535ZM1228.16 0.998535H1229.26C1230.32 0.998535 1231.25 1.6001 1231.71 2.48193C1231.8 2.47363 1231.89 2.46924 1231.98 2.46924H1233.08C1234.61 2.46924 1235.85 3.70703 1235.85 5.23389C1235.85 6.76123 1234.61 7.99902 1233.08 7.99902H1231.98C1230.92 7.99902 1229.99 7.39746 1229.53 6.51562C1229.44 6.52393 1229.35 6.52832 1229.26 6.52832H1228.16C1226.63 6.52832 1225.4 5.29053 1225.4 3.76367C1225.4 2.23633 1226.63 0.998535 1228.16 0.998535ZM1240.32 0.998535H1241.42C1242.48 0.998535 1243.41 1.6001 1243.87 2.48193C1243.96 2.47363 1244.05 2.46924 1244.14 2.46924H1245.24C1246.77 2.46924 1248.01 3.70703 1248.01 5.23389C1248.01 6.76123 1246.77 7.99902 1245.24 7.99902H1244.14C1243.08 7.99902 1242.15 7.39746 1241.69 6.51562C1241.6 6.52393 1241.51 6.52832 1241.42 6.52832H1240.32C1238.79 6.52832 1237.56 5.29053 1237.56 3.76367C1237.56 2.23633 1238.79 0.998535 1240.32 0.998535ZM1252.48 0.998535H1253.58C1254.64 0.998535 1255.57 1.6001 1256.03 2.48193C1256.12 2.47363 1256.21 2.46924 1256.3 2.46924H1257.4C1258.93 2.46924 1260.17 3.70703 1260.17 5.23389C1260.17 6.76123 1258.93 7.99902 1257.4 7.99902H1256.3C1255.24 7.99902 1254.31 7.39746 1253.85 6.51562C1253.76 6.52393 1253.67 6.52832 1253.58 6.52832H1252.48C1250.95 6.52832 1249.71 5.29053 1249.71 3.76367C1249.71 2.23633 1250.95 0.998535 1252.48 0.998535ZM1264.64 0.998535H1265.74C1266.8 0.998535 1267.73 1.6001 1268.19 2.48193C1268.28 2.47363 1268.37 2.46924 1268.46 2.46924H1269.56C1271.09 2.46924 1272.33 3.70703 1272.33 5.23389C1272.33 6.76123 1271.09 7.99902 1269.56 7.99902H1268.46C1267.4 7.99902 1266.47 7.39746 1266.01 6.51562C1265.92 6.52393 1265.83 6.52832 1265.74 6.52832H1264.64C1263.11 6.52832 1261.88 5.29053 1261.88 3.76367C1261.88 2.23633 1263.11 0.998535 1264.64 0.998535ZM1276.8 0.998535H1277.9C1278.96 0.998535 1279.89 1.6001 1280.35 2.48193C1280.44 2.47363 1280.53 2.46924 1280.62 2.46924H1281.72C1283.25 2.46924 1284.49 3.70703 1284.49 5.23389C1284.49 6.76123 1283.25 7.99902 1281.72 7.99902H1280.62C1279.56 7.99902 1278.63 7.39746 1278.17 6.51562C1278.08 6.52393 1277.99 6.52832 1277.9 6.52832H1276.8C1275.27 6.52832 1274.04 5.29053 1274.04 3.76367C1274.04 2.23633 1275.27 0.998535 1276.8 0.998535ZM1288.96 0.998535H1290.06C1291.12 0.998535 1292.05 1.6001 1292.51 2.48193C1292.6 2.47363 1292.69 2.46924 1292.78 2.46924H1293.88C1293.92 2.46924 1293.96 2.46973 1294 2.47168V7.99658C1293.96 7.99805 1293.92 7.99902 1293.88 7.99902H1292.78C1291.72 7.99902 1290.79 7.39746 1290.33 6.51562C1290.24 6.52393 1290.15 6.52832 1290.06 6.52832H1288.96C1287.43 6.52832 1286.19 5.29053 1286.19 3.76367C1286.19 2.23633 1287.43 0.998535 1288.96 0.998535Z" fill="black"></path></svg>